<?xml version="1.0" encoding="UTF-8"?>
<svg version="1.1" xmlns="http://www.w3.org/2000/svg" width="1024" height="1024">
<path d="M0 0 C337.92 0 675.84 0 1024 0 C1024 337.92 1024 675.84 1024 1024 C686.08 1024 348.16 1024 0 1024 C0 686.08 0 348.16 0 0 Z " fill="#FEFEFE" transform="translate(0,0)"/>
<path d="M0 0 C0.96679688 0.763125 1.93359375 1.52625 2.9296875 2.3125 C7.74334186 6.1738596 12.32029048 10.10370719 16.5625 14.58984375 C18.14973012 16.23465305 18.14973012 16.23465305 21 18 C21 18.66 21 19.32 21 20 C21.76183594 20.24234375 22.52367187 20.4846875 23.30859375 20.734375 C26.40606198 22.19094932 27.30059819 23.36421096 29.0625 26.25 C29.81853516 27.44882812 29.81853516 27.44882812 30.58984375 28.671875 C31.44016513 30.07572969 32.28746524 31.48142967 33.12890625 32.890625 C34.88064533 35.98126414 34.88064533 35.98126414 37.91674805 37.47631836 C40.43628716 38.10967256 41.39867207 39.03811013 43.20703125 40.87890625 C43.79419922 41.47123047 44.38136719 42.06355469 44.98632812 42.67382812 C45.8902832 43.6087207 45.8902832 43.6087207 46.8125 44.5625 C47.69905273 45.45678711 47.69905273 45.45678711 48.60351562 46.36914062 C51.62077726 49.43904805 54.52101013 52.57340347 57.32421875 55.83984375 C61.62968674 60.8127888 66.31640819 65.38631254 71 70 C76.20335791 75.12569585 81.34677404 80.20580259 85.99902344 85.84277344 C88.07383206 88.17447318 88.07383206 88.17447318 91.07128906 90.54003906 C99.98837256 98.02544604 99.98837256 98.02544604 100.96289062 104.14648438 C101.31783367 108.70179668 101.05477014 113.19953263 100.75 117.75 C100.68965947 119.33312798 100.63493254 120.9164803 100.5859375 122.5 C100.45512252 126.33898369 100.24906544 130.16694672 100 134 C100.66 134 101.32 134 102 134 C102.20625 133.443125 102.4125 132.88625 102.625 132.3125 C105.19084794 127.99721028 109.37029767 124.87532246 114 123 C121.63555564 122.0496993 128.51672233 122.68642482 135 127 C141.208418 131.96106461 143.86924789 139.55179571 146 147 C146.1328125 149.8984375 146.1328125 149.8984375 146 152 C147.175625 151.67 148.35125 151.34 149.5625 151 C156.16034058 149.39982074 161.21961648 149.38295319 167.19921875 152.76171875 C170.3168755 154.90553044 171.51579672 156.4750172 173 160 C173.31147632 164.35547725 173.23276105 168.64219585 173 173 C174.3921875 172.0409375 174.3921875 172.0409375 175.8125 171.0625 C180.39312184 168.09856822 183.58290675 167.46717116 189 168 C193.68412445 169.9166234 196.4386492 172.00405503 198.9375 176.4375 C199.89250789 179.63958529 200.59581987 182.68572295 201 186 C201.7425 185.525625 202.485 185.05125 203.25 184.5625 C208.32299816 181.68011468 213.24186779 181.20766652 219.01953125 182.42578125 C224.59726248 184.16415638 227.69891733 187.25969098 231 192 C233.45093273 196.90186547 232.70403522 203.66747209 231.1640625 208.76953125 C228.03819501 215.59818808 223.52220699 220.91740467 216.625 224.09375 C212.83893306 225.4388001 210.06977467 226 206 226 C205.91363281 226.58007812 205.82726562 227.16015625 205.73828125 227.7578125 C204.6893918 233.58925295 203.19886563 236.80113437 199 241 C196.29120665 242.35439668 193.99066732 242.06501451 191 242 C190.9175 242.721875 190.835 243.44375 190.75 244.1875 C189.84343384 247.58712309 188.36105545 249.42430315 186 252 C182.9043508 253.5478246 179.63952329 253.13319566 176.24264526 253.12025452 C175.43239305 253.12110894 174.62214083 253.12196337 173.78733552 253.12284368 C171.05725757 253.12449807 168.32724031 253.11897777 165.59716797 253.11352539 C163.64615887 253.11324348 161.69514966 253.11340132 159.74414062 253.1139679 C154.43450181 253.11425574 149.12488542 253.10836117 143.81525183 253.10139394 C138.27121436 253.09515816 132.72717642 253.09455642 127.18313599 253.09336853 C116.67882171 253.09025588 106.1745178 253.08204337 95.6702081 253.07201904 C83.71392142 253.06085586 71.75763426 253.05534694 59.80134368 253.05032361 C35.20089003 253.03986071 10.6004456 253.02226254 -14 253 C-11.31400636 251.20933757 -9.50777684 250.40924215 -6.484375 249.48779297 C-5.57333008 249.2076535 -4.66228516 248.92751404 -3.72363281 248.6388855 C-2.74233398 248.34297516 -1.76103516 248.04706482 -0.75 247.7421875 C0.7644873 247.2803154 0.7644873 247.2803154 2.30957031 246.80911255 C4.44392683 246.15954819 6.5790398 245.51246497 8.71484375 244.86767578 C11.9891107 243.87829042 15.26029647 242.87918431 18.53125 241.87890625 C20.60398933 241.24941579 22.67690037 240.62049037 24.75 239.9921875 C25.73129883 239.6922287 26.71259766 239.3922699 27.72363281 239.08322144 C28.63467773 238.80938629 29.54572266 238.53555115 30.484375 238.25341797 C31.28584961 238.01074188 32.08732422 237.7680658 32.91308594 237.51803589 C35 237 35 237 38 237 C37.67 234.36 37.34 231.72 37 229 C36.4335527 229.18268433 35.86710541 229.36536865 35.28349304 229.55358887 C32.52639024 230.44245842 29.76906428 231.33063367 27.01171875 232.21875 C25.97555923 232.55273804 24.93939972 232.88672607 23.87184143 233.23083496 C18.14616537 235.07401177 12.41692111 236.90484518 6.68066406 238.71484375 C4.36905729 239.44504872 2.05753309 240.17551517 -0.25390625 240.90625 C-1.38927826 241.26509277 -2.52465027 241.62393555 -3.69442749 241.99365234 C-9.42399507 243.81709137 -15.09140919 245.71609346 -20.71484375 247.84375 C-41.74234727 255.53665904 -63.93326422 253.73835034 -86 253 C-83.28839323 250.28839323 -80.11660311 249.38201409 -76.5859375 248.078125 C-75.80878891 247.78565384 -75.03164032 247.49318268 -74.23094177 247.19184875 C-72.52102475 246.54846326 -70.81026233 245.90732134 -69.0987854 245.26809692 C-64.36408574 243.49836016 -59.63693545 241.70873399 -54.91015625 239.91796875 C-53.89102646 239.53201035 -52.87189667 239.14605194 -51.82188416 238.74839783 C-38.77659969 233.79456284 -25.79544309 228.67697294 -12.8125 223.5625 C-11.64555603 223.10290894 -10.47861206 222.64331787 -9.27630615 222.1697998 C-4.75913832 220.39053348 -0.2421029 218.6109328 4.2744751 216.83016968 C15.17510966 212.53331327 26.08622368 208.26334977 37 204 C37 201.69 37 199.38 37 197 C11.90336809 207.15037501 -13.16388109 217.37120661 -38.21582031 227.63134766 C-47.30839922 231.35509911 -56.40218362 235.07590467 -65.49606323 238.79647827 C-68.38165553 239.97715061 -71.26712923 241.15811242 -74.15258789 242.33911133 C-75.91291885 243.05941814 -77.67325391 243.7797149 -79.43359375 244.5 C-80.230466 244.82622849 -81.02733826 245.15245697 -81.84835815 245.48857117 C-82.58861237 245.79140518 -83.32886658 246.0942392 -84.09155273 246.40625 C-84.77120087 246.68726563 -85.450849 246.96828125 -86.15109253 247.2578125 C-87.74036004 247.89577546 -89.35494617 248.47000843 -90.97290039 249.03125 C-91.9763147 249.51078125 -91.9763147 249.51078125 -93 250 C-93.33 250.99 -93.66 251.98 -94 253 C-106.87 253 -119.74 253 -133 253 C-132.89816406 246.97234375 -132.79632813 240.9446875 -132.69140625 234.734375 C-132.66026332 230.85122697 -132.63369545 226.96906555 -132.62304688 223.0859375 C-132.60582705 216.95914011 -132.57423907 210.8354812 -132.44116211 204.70996094 C-131.92277766 179.84173623 -132.63022245 160.86147563 -147.04238892 139.96141052 C-150.47967205 134.76160014 -153.25461673 129.213025 -156.125 123.6875 C-161.19273714 114.23235313 -166.40720853 104.86623016 -171.73876953 95.55737305 C-174.02487759 91.55576538 -176.24212538 87.56718689 -178.2421875 83.4140625 C-179.59816183 79.95487928 -179.59816183 79.95487928 -182 79 C-182.37125 79.80630859 -182.37125 79.80630859 -182.75 80.62890625 C-187.10385911 88.88763276 -193.27152207 96.44139554 -198.99291992 103.78222656 C-204.28996029 110.60867281 -209.29130871 117.64917438 -214.32666016 124.66943359 C-217.04276054 128.45231867 -219.77186757 132.22578808 -222.5 136 C-223.5703901 137.48171478 -224.64070229 138.96348584 -225.7109375 140.4453125 C-226.24557617 141.18555664 -226.78021484 141.92580078 -227.33105469 142.68847656 C-229.08851584 145.12259625 -230.84510908 147.55734056 -232.6015625 149.9921875 C-233.19130859 150.80945313 -233.78105469 151.62671875 -234.38867188 152.46875 C-235.51787978 154.03363654 -236.64680161 155.59872956 -237.77539062 157.1640625 C-238.28521484 157.87046875 -238.79503906 158.576875 -239.3203125 159.3046875 C-239.76648926 159.92327637 -240.21266602 160.54186523 -240.67236328 161.17919922 C-242.09682001 163.13278477 -243.54934275 165.06579034 -245 167 C-245.33 195.38 -245.66 223.76 -246 253 C-319.92 253 -393.84 253 -470 253 C-470 240 -470 240 -468 237.0625 C-465.5497619 233.31057291 -465.90707285 231.66065603 -466.125 227.25 C-466.32457305 219.98093536 -464.84102023 215.44872277 -460 210 C-456.36975196 206.70588604 -452.80784595 204.75155313 -447.875 204.375 C-443.00320972 205.16077263 -441.43140416 206.56859584 -438 210 C-437.96132813 209.12988281 -437.96132813 209.12988281 -437.921875 208.2421875 C-437.46455861 201.94369352 -436.25119008 197.83822137 -431.30859375 193.5234375 C-426.81632001 190.27447993 -422.99120727 189.28517 -417.46875 189.56640625 C-412.57690243 190.42557568 -408.50198723 192.49801277 -405 196 C-404.67 188.74 -404.34 181.48 -404 174 C-408.95 174 -413.9 174 -419 174 C-417.31020848 170.62041696 -416.14484179 168.87088081 -413.62109375 166.2421875 C-412.94626953 165.53320312 -412.27144531 164.82421875 -411.57617188 164.09375 C-410.87041016 163.3615625 -410.16464844 162.629375 -409.4375 161.875 C-405.22872711 157.47837115 -401.04522668 153.07443805 -397.00244141 148.52392578 C-388.46255653 139.01947038 -379.5232813 129.88875098 -370.57648373 120.76898193 C-367.43437681 117.56490547 -364.30733721 114.3486515 -361.21118164 111.10009766 C-358.18455154 107.92530235 -355.12399994 104.78706183 -352.03759956 101.67037964 C-350.87995701 100.48963769 -349.73439891 99.29690346 -348.60236931 98.09158325 C-341.09368546 90.11894984 -335.66854374 86.68871183 -324.59169006 86.06045532 C-323.40643234 86.04050507 -322.22117462 86.02055481 -321 86 C-319.0932198 85.86950838 -317.18679582 85.73336192 -315.28125 85.5859375 C-313.68778436 85.50945115 -312.09402129 85.4388673 -310.5 85.375 C-309.66597656 85.33632813 -308.83195313 85.29765625 -307.97265625 85.2578125 C-305.98201981 85.16628899 -303.99104164 85.08223868 -302 85 C-301.84325806 84.17121338 -301.84325806 84.17121338 -301.68334961 83.32568359 C-300.55145429 77.76352995 -298.90864611 72.7857007 -296.5625 67.625 C-296.21687012 66.85969971 -295.87124023 66.09439941 -295.51513672 65.3059082 C-286.97393527 46.85743776 -276.00085532 30.73888491 -262 16 C-261.5054834 15.47293457 -261.0109668 14.94586914 -260.50146484 14.40283203 C-199.12594016 -50.64742923 -96.06241973 -60.28689563 0 0 Z " fill="#FBCA0F" transform="translate(636,242)"/>
<path d="M0 0 C3.95939764 3.34126977 7.84068264 6.70202847 11.5 10.375 C12.1909375 11.06335938 12.881875 11.75171875 13.59375 12.4609375 C15.51559061 14.48885373 17.33859723 16.54524127 19.15625 18.6640625 C23.52473417 23.69063465 28.25800509 28.32878114 33 33 C38.20335791 38.12569585 43.34677404 43.20580259 47.99902344 48.84277344 C50.07383206 51.17447318 50.07383206 51.17447318 53.07128906 53.54003906 C61.98837256 61.02544604 61.98837256 61.02544604 62.96289062 67.14648438 C63.31783367 71.70179668 63.05477014 76.19953263 62.75 80.75 C62.68965947 82.33312798 62.63493254 83.9164803 62.5859375 85.5 C62.45512252 89.33898369 62.24906544 93.16694672 62 97 C62.66 97 63.32 97 64 97 C64.20625 96.443125 64.4125 95.88625 64.625 95.3125 C67.19084794 90.99721028 71.37029767 87.87532246 76 86 C83.63555564 85.0496993 90.51672233 85.68642482 97 90 C103.208418 94.96106461 105.86924789 102.55179571 108 110 C108.1328125 112.8984375 108.1328125 112.8984375 108 115 C109.7634375 114.505 109.7634375 114.505 111.5625 114 C118.16034058 112.39982074 123.21961648 112.38295319 129.19921875 115.76171875 C132.3168755 117.90553044 133.51579672 119.4750172 135 123 C135.31147632 127.35547725 135.23276105 131.64219585 135 136 C135.928125 135.360625 136.85625 134.72125 137.8125 134.0625 C142.39312184 131.09856822 145.58290675 130.46717116 151 131 C155.68412445 132.9166234 158.4386492 135.00405503 160.9375 139.4375 C161.89250789 142.63958529 162.59581987 145.68572295 163 149 C163.7425 148.525625 164.485 148.05125 165.25 147.5625 C170.32299816 144.68011468 175.24186779 144.20766652 181.01953125 145.42578125 C186.59726248 147.16415638 189.69891733 150.25969098 193 155 C195.45093273 159.90186547 194.70403522 166.66747209 193.1640625 171.76953125 C190.03819501 178.59818808 185.52220699 183.91740467 178.625 187.09375 C174.83893306 188.4388001 172.06977467 189 168 189 C167.87044922 189.87011719 167.87044922 189.87011719 167.73828125 190.7578125 C166.6893918 196.58925295 165.19886563 199.80113437 161 204 C158.29120665 205.35439668 155.99066732 205.06501451 153 205 C152.9175 205.721875 152.835 206.44375 152.75 207.1875 C151.84343384 210.58712309 150.36105545 212.42430315 148 215 C144.9043508 216.5478246 141.63952329 216.13319566 138.24264526 216.12025452 C137.43239305 216.12110894 136.62214083 216.12196337 135.78733552 216.12284368 C133.05725757 216.12449807 130.32724031 216.11897777 127.59716797 216.11352539 C125.64615887 216.11324348 123.69514966 216.11340132 121.74414062 216.1139679 C116.43450181 216.11425574 111.12488542 216.10836117 105.81525183 216.10139394 C100.27121436 216.09515816 94.72717642 216.09455642 89.18313599 216.09336853 C78.67882171 216.09025588 68.1745178 216.08204337 57.6702081 216.07201904 C45.71392142 216.06085586 33.75763426 216.05534694 21.80134368 216.05032361 C-2.79910997 216.03986071 -27.3995544 216.02226254 -52 216 C-49.31400636 214.20933757 -47.50777684 213.40924215 -44.484375 212.48779297 C-43.57333008 212.2076535 -42.66228516 211.92751404 -41.72363281 211.6388855 C-40.74233398 211.34297516 -39.76103516 211.04706482 -38.75 210.7421875 C-37.7403418 210.43427277 -36.73068359 210.12635803 -35.69042969 209.80911255 C-33.55607317 209.15954819 -31.4209602 208.51246497 -29.28515625 207.86767578 C-26.0108893 206.87829042 -22.73970353 205.87918431 -19.46875 204.87890625 C-17.39601067 204.24941579 -15.32309963 203.62049037 -13.25 202.9921875 C-12.26870117 202.6922287 -11.28740234 202.3922699 -10.27636719 202.08322144 C-9.36532227 201.80938629 -8.45427734 201.53555115 -7.515625 201.25341797 C-6.31341309 200.88940384 -6.31341309 200.88940384 -5.08691406 200.51803589 C-3 200 -3 200 0 200 C-0.33 197.36 -0.66 194.72 -1 192 C-1.5664473 192.18268433 -2.13289459 192.36536865 -2.71650696 192.55358887 C-5.47360976 193.44245842 -8.23093572 194.33063367 -10.98828125 195.21875 C-12.02444077 195.55273804 -13.06060028 195.88672607 -14.12815857 196.23083496 C-19.85383463 198.07401177 -25.58307889 199.90484518 -31.31933594 201.71484375 C-33.63094271 202.44504872 -35.94246691 203.17551517 -38.25390625 203.90625 C-39.38927826 204.26509277 -40.52465027 204.62393555 -41.69442749 204.99365234 C-47.42399507 206.81709137 -53.09140919 208.71609346 -58.71484375 210.84375 C-79.74234727 218.53665904 -101.93326422 216.73835034 -124 216 C-121.28839323 213.28839323 -118.11660311 212.38201409 -114.5859375 211.078125 C-113.80878891 210.78565384 -113.03164032 210.49318268 -112.23094177 210.19184875 C-110.52102475 209.54846326 -108.81026233 208.90732134 -107.0987854 208.26809692 C-102.36408574 206.49836016 -97.63693545 204.70873399 -92.91015625 202.91796875 C-91.38146156 202.33903114 -91.38146156 202.33903114 -89.82188416 201.74839783 C-76.77659969 196.79456284 -63.79544309 191.67697294 -50.8125 186.5625 C-49.06208405 185.8731134 -49.06208405 185.8731134 -47.27630615 185.1697998 C-42.75913832 183.39053348 -38.2421029 181.6109328 -33.7255249 179.83016968 C-22.82489034 175.53331327 -11.91377632 171.26334977 -1 167 C-1 164.69 -1 162.38 -1 160 C-26.09663191 170.15037501 -51.16388109 180.37120661 -76.21582031 190.63134766 C-85.30839922 194.35509911 -94.40218362 198.07590467 -103.49606323 201.79647827 C-106.38165553 202.97715061 -109.26712923 204.15811242 -112.15258789 205.33911133 C-113.91291885 206.05941814 -115.67325391 206.7797149 -117.43359375 207.5 C-118.230466 207.82622849 -119.02733826 208.15245697 -119.84835815 208.48857117 C-120.58861237 208.79140518 -121.32886658 209.0942392 -122.09155273 209.40625 C-122.77248993 209.68726563 -123.45342712 209.96828125 -124.15499878 210.2578125 C-125.72454123 210.88919137 -127.31577051 211.4662205 -128.91040039 212.03125 C-131.33225172 212.93334973 -131.33225172 212.93334973 -133 216 C-133.13218629 205.72304741 -133.2626776 195.44607472 -133.39115143 185.16907501 C-133.45089175 180.39428168 -133.511162 175.6194964 -133.57275391 170.84472656 C-133.5905627 169.45795983 -133.5905627 169.45795983 -133.60873127 168.0431776 C-133.63253816 166.190917 -133.65649308 164.3386583 -133.68059826 162.48640156 C-133.73868465 157.94989726 -133.7908578 153.41345892 -133.8306427 148.87675476 C-133.84634191 147.13096997 -133.8621828 145.38518644 -133.87817383 143.6394043 C-133.88577886 142.80204333 -133.89338388 141.96468237 -133.90121937 141.10194683 C-133.95391819 136.14455436 -134.08641836 131.1990759 -134.28393555 126.24536133 C-134.33396729 124.57534058 -134.33396729 124.57534058 -134.38500977 122.87158203 C-134.44576332 120.91721315 -134.53354525 118.96336025 -134.65722656 117.01196289 C-134.77870468 112.05184468 -134.12312821 109.56392911 -130.65283203 105.91479492 C-128.04900282 103.60126772 -125.40441033 101.50269783 -122.38671875 99.75 C-118.27515503 97.23136536 -114.72896166 94.37660928 -111.125 91.1875 C-106.6333197 87.34461037 -102.06378264 83.61201791 -97.43359375 79.9375 C-87.92506887 72.36731005 -78.60120926 64.55957693 -69.22167969 56.83056641 C-65.6483795 53.88632412 -62.07415572 50.9432036 -58.5 48 C-57.08332863 46.83333904 -55.66666197 45.66667237 -54.25 44.5 C-51.41666667 42.16666667 -48.58333333 39.83333333 -45.75 37.5 C-45.04866943 36.92241943 -44.34733887 36.34483887 -43.62475586 35.74975586 C-42.20895938 34.58383452 -40.79310657 33.41798159 -39.37719727 32.25219727 C-35.82175025 29.32468708 -32.26730917 26.39597156 -28.71484375 23.46484375 C-19.17864695 15.59924534 -9.60459877 7.78192256 0 0 Z " fill="#2C2921" transform="translate(674,279)"/>
<path d="M0 0 C1.49462891 1.47436523 1.49462891 1.47436523 2.7265625 3.55859375 C3.42894043 4.71222412 3.42894043 4.71222412 4.14550781 5.88916016 C4.63374023 6.7301123 5.12197266 7.57106445 5.625 8.4375 C6.69427421 10.20505561 7.76460636 11.97197161 8.8359375 13.73828125 C9.36928711 14.6298291 9.90263672 15.52137695 10.45214844 16.43994141 C12.63794275 20.05512109 14.93584332 23.59116714 17.25 27.125 C21.18500207 33.17554765 25.08024913 39.25068939 28.96289062 45.33496094 C34.36989578 53.80761227 39.79125273 62.26148873 45.40991211 70.59545898 C49.28110131 76.36274085 52.96880369 82.24323112 56.65429688 88.13037109 C60.19261867 93.769716 63.85771315 99.29233752 67.671875 104.75 C69 107 69 107 69 110 C65.37 110 61.74 110 58 110 C58 138.71 58 167.42 58 197 C53.05 197 48.1 197 43 197 C43.03117165 195.43955963 43.03117165 195.43955963 43.06297302 193.84759521 C43.25130551 183.90815852 43.35650526 173.9706238 43.38603115 164.02941513 C43.40372053 158.92140721 43.44789043 153.81686196 43.55883789 148.70996094 C44.07722234 123.84173623 43.36977755 104.86147563 28.95761108 83.96141052 C25.52032795 78.76160014 22.74538327 73.213025 19.875 67.6875 C14.80726286 58.23235313 9.59279147 48.86623016 4.26123047 39.55737305 C1.97512241 35.55576538 -0.24212538 31.56718689 -2.2421875 27.4140625 C-3.59816183 23.95487928 -3.59816183 23.95487928 -6 23 C-6.2475 23.53753906 -6.495 24.07507813 -6.75 24.62890625 C-11.10385911 32.88763276 -17.27152207 40.44139554 -22.99291992 47.78222656 C-28.28996029 54.60867281 -33.29130871 61.64917438 -38.32666016 68.66943359 C-41.04276054 72.45231867 -43.77186757 76.22578808 -46.5 80 C-47.5703901 81.48171478 -48.64070229 82.96348584 -49.7109375 84.4453125 C-50.24557617 85.18555664 -50.78021484 85.92580078 -51.33105469 86.68847656 C-53.08851584 89.12259625 -54.84510908 91.55734056 -56.6015625 93.9921875 C-57.19130859 94.80945313 -57.78105469 95.62671875 -58.38867188 96.46875 C-59.51787978 98.03363654 -60.64680161 99.59872956 -61.77539062 101.1640625 C-62.28521484 101.87046875 -62.79503906 102.576875 -63.3203125 103.3046875 C-63.76648926 103.92327637 -64.21266602 104.54186523 -64.67236328 105.17919922 C-66.09682001 107.13278477 -67.54934275 109.06579034 -69 111 C-69.33 139.38 -69.66 167.76 -70 197 C-143.92 197 -217.84 197 -294 197 C-294 184 -294 184 -292 181.0625 C-289.5497619 177.31057291 -289.90707285 175.66065603 -290.125 171.25 C-290.32457305 163.98093536 -288.84102023 159.44872277 -284 154 C-280.36975196 150.70588604 -276.80784595 148.75155313 -271.875 148.375 C-267.00320972 149.16077263 -265.43140416 150.56859584 -262 154 C-261.96132813 153.12988281 -261.96132813 153.12988281 -261.921875 152.2421875 C-261.46455861 145.94369352 -260.25119008 141.83822137 -255.30859375 137.5234375 C-250.81632001 134.27447993 -246.99120727 133.28517 -241.46875 133.56640625 C-236.57690243 134.42557568 -232.50198723 136.49801277 -229 140 C-228.67 132.74 -228.34 125.48 -228 118 C-232.95 118 -237.9 118 -243 118 C-241.31020848 114.62041696 -240.14484179 112.87088081 -237.62109375 110.2421875 C-236.94626953 109.53320312 -236.27144531 108.82421875 -235.57617188 108.09375 C-234.87041016 107.3615625 -234.16464844 106.629375 -233.4375 105.875 C-229.22872711 101.47837115 -225.04522668 97.07443805 -221.00244141 92.52392578 C-212.46255653 83.01947038 -203.5232813 73.88875098 -194.57648373 64.76898193 C-191.43437681 61.56490547 -188.30733721 58.3486515 -185.21118164 55.10009766 C-182.18455154 51.92530235 -179.12399994 48.78706183 -176.03759956 45.67037964 C-174.87995701 44.48963769 -173.73439891 43.29690346 -172.60236931 42.09158325 C-165.138791 34.16684239 -159.73965065 30.69247004 -148.724823 30.08181763 C-147.49563141 30.05481781 -146.26643982 30.02781799 -145 30 C-142.63820828 29.80193233 -140.27726492 29.59304694 -137.91796875 29.3671875 C-135.67479087 29.1989168 -133.43129698 29.0348034 -131.1875 28.875 C-130.06408203 28.78863281 -128.94066406 28.70226562 -127.78320312 28.61328125 C-120.83502765 28.10517323 -113.96647787 27.91852073 -107 28 C-107 22.06 -107 16.12 -107 10 C-98.09 10 -89.18 10 -80 10 C-80 13.3 -80 16.6 -80 20 C-78.21335937 19.47865479 -78.21335937 19.47865479 -76.390625 18.94677734 C-62.52459685 14.92826655 -48.59241794 11.19249744 -34.61914062 7.56591797 C-30.94756408 6.61136751 -27.27849456 5.64753971 -23.609375 4.68359375 C-21.26056353 4.07235205 -18.91161048 3.46165406 -16.5625 2.8515625 C-15.47300049 2.56415192 -14.38350098 2.27674133 -13.26098633 1.98062134 C-12.2480249 1.71969696 -11.23506348 1.45877258 -10.19140625 1.18994141 C-9.30654541 0.95933014 -8.42168457 0.72871887 -7.51000977 0.49111938 C-4.91523969 -0.01658457 -2.63637183 -0.19348428 0 0 Z " fill="#2C2921" transform="translate(460,298)"/>
<path d="M0 0 C0 26.4 0 52.8 0 80 C-69.3 80 -138.6 80 -210 80 C-210 67 -210 67 -208 64.0625 C-205.5497619 60.31057291 -205.90707285 58.66065603 -206.125 54.25 C-206.32457305 46.98093536 -204.84102023 42.44872277 -200 37 C-196.36975196 33.70588604 -192.80784595 31.75155313 -187.875 31.375 C-183.00320972 32.16077263 -181.43140416 33.56859584 -178 37 C-177.96132812 36.12988281 -177.96132812 36.12988281 -177.921875 35.2421875 C-177.46455861 28.94369352 -176.25119008 24.83822137 -171.30859375 20.5234375 C-166.81632001 17.27447993 -162.99120727 16.28517 -157.46875 16.56640625 C-152.57690243 17.42557568 -148.50198723 19.49801277 -145 23 C-144.67 15.74 -144.34 8.48 -144 1 C-133.31263338 0.82400693 -122.62515661 0.65736266 -111.9375 0.5 C-111.13123798 0.48812275 -110.32497597 0.4762455 -109.49428177 0.46400833 C-72.99191712 -0.06922297 -36.50763678 -0.0737528 0 0 Z " fill="#F3DC4D" transform="translate(376,415)"/>
<path d="M0 0 C4.07352375 1.35784125 4.38312879 3.07745291 6.3359375 6.8515625 C6.65142044 7.45336838 6.96690338 8.05517426 7.29194641 8.67521667 C7.97219942 9.97474982 8.64819614 11.2765179 9.32040405 12.58023071 C11.10425784 16.03896716 12.91877032 19.48157221 14.73046875 22.92578125 C15.27568932 23.96508034 15.27568932 23.96508034 15.83192444 25.02537537 C18.99029297 31.02814123 22.30767437 36.93167664 25.6875 42.8125 C30.93481979 51.9734492 35.86737506 61.27528821 40.68823242 70.66723633 C41.44777222 72.1467981 41.44777222 72.1467981 42.22265625 73.65625 C42.66359619 74.52056641 43.10453613 75.38488281 43.55883789 76.27539062 C45.00766092 79.12201152 45.00766092 79.12201152 47.06169128 82.11573792 C49.48187883 86.36590021 49.5406336 90.06757479 49.45410156 94.87280273 C49.4545837 95.74591882 49.45506584 96.6190349 49.45556259 97.51860905 C49.45259469 100.32402949 49.42221777 103.12836536 49.390625 105.93359375 C49.38473834 107.67386362 49.38066103 109.41414057 49.37841797 111.15441895 C49.35751041 117.58222116 49.30166518 124.00987142 49.25 130.4375 C49.1675 144.813125 49.085 159.18875 49 174 C11.71 174 -25.58 174 -64 174 C-64.268125 160.18125 -64.53625 146.3625 -64.8125 132.125 C-64.93085205 127.79906738 -65.0492041 123.47313477 -65.17114258 119.01611328 C-65.70814127 85.39943947 -65.70814127 85.39943947 -56.14900208 74.93740845 C-55.02886679 73.83486471 -53.88744717 72.75346008 -52.72421265 71.69648743 C-49.51612174 68.5399824 -47.10209407 64.7605946 -44.5625 61.0625 C-36.27294924 49.57325844 -27.89492761 38.14763711 -19.35864258 26.84033203 C-12.70772662 18.03008463 -6.31805761 9.05140168 0 0 Z " fill="#F3DB4C" transform="translate(454,321)"/>
<path d="M0 0 C1.18078125 -0.01546875 2.3615625 -0.0309375 3.578125 -0.046875 C18.42005562 0.01850795 31.84093847 5.325746 42.6875 15.5 C53.48106753 26.87950405 60.41517041 41.68417374 61 57.5 C61.05994141 59.10488281 61.05994141 59.10488281 61.12109375 60.7421875 C61.44231617 78.01261636 57.7588139 92.74983363 47 106.5 C46.2575 107.53125 45.515 108.5625 44.75 109.625 C34.59446086 120.24215455 20.96211463 127.2751799 6.20703125 127.8359375 C-14.02397447 128.12218822 -28.50337905 125.15875932 -43.6796875 110.91015625 C-58.46524496 95.55209404 -60.60690146 77.68457212 -60.30859375 57.33203125 C-59.79643348 41.63357511 -53.56477158 27.25874957 -42.640625 15.8515625 C-30.09789125 4.6818499 -16.79780601 -0.22005859 0 0 Z " fill="#2B2820" transform="translate(298,526.5)"/>
<path d="M0 0 C8.22848387 4.3073291 11.05488726 10.91223292 14.2421875 19.3515625 C15.06852818 22.24009851 15.31324885 24.45873877 15.125 27.4375 C16.300625 27.1075 17.47625 26.7775 18.6875 26.4375 C25.28534058 24.83732074 30.34461648 24.82045319 36.32421875 28.19921875 C39.4418755 30.34303044 40.64079672 31.9125172 42.125 35.4375 C42.43647632 39.79297725 42.35776105 44.07969585 42.125 48.4375 C43.053125 47.798125 43.98125 47.15875 44.9375 46.5 C49.51812184 43.53606822 52.70790675 42.90467116 58.125 43.4375 C62.80912445 45.3541234 65.5636492 47.44155503 68.0625 51.875 C69.01750789 55.07708529 69.72081987 58.12322295 70.125 61.4375 C70.8675 60.963125 71.61 60.48875 72.375 60 C77.44799816 57.11761468 82.36686779 56.64516652 88.14453125 57.86328125 C93.72226248 59.60165638 96.82391733 62.69719098 100.125 67.4375 C102.57593273 72.33936547 101.82903522 79.10497209 100.2890625 84.20703125 C97.16319501 91.03568808 92.64720699 96.35490467 85.75 99.53125 C81.96393306 100.8763001 79.19477467 101.4375 75.125 101.4375 C74.99544922 102.30761719 74.99544922 102.30761719 74.86328125 103.1953125 C73.8143918 109.02675295 72.32386563 112.23863437 68.125 116.4375 C65.41620665 117.79189668 63.11566732 117.50251451 60.125 117.4375 C60.0425 118.159375 59.96 118.88125 59.875 119.625 C58.96843384 123.02462309 57.48605545 124.86180315 55.125 127.4375 C51.98506519 129.0074674 48.63318382 128.56692762 45.18701172 128.55102539 C44.35414705 128.55114593 43.52128239 128.55126646 42.6631794 128.55139065 C39.96032184 128.55064273 37.25753276 128.54301997 34.5546875 128.53515625 C32.88875359 128.53368646 31.22281923 128.53266598 29.55688477 128.53210449 C23.37124948 128.52685594 17.18562407 128.5128948 11 128.5 C-2.81875 128.479375 -16.6375 128.45875 -30.875 128.4375 C-30.875 89.1675 -30.875 49.8975 -30.875 9.4375 C-30.215 9.4375 -29.555 9.4375 -28.875 9.4375 C-28.66875 8.880625 -28.4625 8.32375 -28.25 7.75 C-22.2206344 -2.39029669 -10.34504108 -4.09235072 0 0 Z " fill="#0F973F" transform="translate(766.875,366.5625)"/>
<path d="M0 0 C9.57 0 19.14 0 29 0 C31.56263802 5.12527603 33.96004306 10.1048308 36.07421875 15.3984375 C36.35565231 16.09516571 36.63708588 16.79189392 36.92704773 17.50973511 C37.53387142 19.01326175 38.13918055 20.51740041 38.74310303 22.02209473 C39.70475446 24.4179884 40.67048456 26.812203 41.63720703 29.20605469 C43.38796453 33.54323071 45.13515332 37.88183484 46.88140869 42.2208252 C49.99413923 49.95450077 53.11075104 57.68660239 56.23208618 65.41680908 C57.36612938 68.22801044 58.49698108 71.04048175 59.62768555 73.85302734 C60.32196059 75.57395064 61.01637086 77.29481938 61.7109375 79.015625 C62.03003586 79.81177216 62.34913422 80.60791931 62.67790222 81.42819214 C63.91092638 84.97416264 63.91092638 84.97416264 66 88 C76.3843677 62.09733933 86.72986145 36.18031759 96.94615173 10.21084595 C98.28718656 6.80296322 99.63985453 3.40036367 101 0 C109.91 0 118.82 0 128 0 C128.24234375 3.51398437 128.4846875 7.02796875 128.734375 10.6484375 C128.8186676 11.87036301 128.90296021 13.09228851 128.98980713 14.35124207 C129.42303735 20.63167137 129.85586573 26.91212805 130.28808594 33.19262695 C130.47325138 35.88232807 130.65847824 38.57202495 130.84375 41.26171875 C130.91413357 42.28355601 130.91413357 42.28355601 130.98593903 43.32603645 C131.65581204 53.04762249 132.33254619 62.76871029 133.01406097 72.48948669 C133.33795197 77.1137054 133.66011477 81.7380449 133.98254395 86.36236572 C134.16030598 88.90470355 134.33893025 91.44698124 134.51843262 93.98919678 C134.76967907 97.5486386 135.01796086 101.10827614 135.265625 104.66796875 C135.34043091 105.71652542 135.41523682 106.76508209 135.49230957 107.84541321 C135.5596228 108.82092636 135.62693604 109.79643951 135.69628906 110.80151367 C135.75528381 111.64139328 135.81427856 112.48127289 135.87506104 113.34660339 C136.02642068 116.56111024 136 119.78193164 136 123 C127.75 123 119.5 123 111 123 C109.56340268 103.09375796 108.39735178 83.20264313 107.47198486 63.2678833 C107.30656342 59.71949437 107.13746632 56.17128039 106.96875 52.62304688 C106.64239362 45.74885776 106.31984792 38.87449497 106 32 C105.76827591 32.62916824 105.53655182 33.25833649 105.29780579 33.90657043 C100.22772014 47.63834812 94.94453084 61.23013525 89.1875 74.6875 C88.15175736 77.12476363 87.11791335 79.56282663 86.08425903 82.00097656 C85.39424992 83.62847674 84.7037248 85.25575826 84.01266479 86.8828125 C80.62676849 94.86026852 77.30539525 102.86391623 74 110.875 C73.74052582 111.50344818 73.48105164 112.13189636 73.2137146 112.77938843 C71.80745042 116.18556484 70.40335099 119.59262128 69 123 C64.38 123 59.76 123 55 123 C46.61551376 104.47379987 38.6358054 85.79139174 30.7644043 67.04223633 C26.26201516 56.32260761 21.70105532 45.634131 17 35 C15.88115814 48.96644063 14.9838908 62.93886082 14.234375 76.9296875 C14.13573906 78.76976631 14.13573906 78.76976631 14.03511047 80.64701843 C13.70150588 86.9037661 13.37444266 93.16080522 13.0534668 99.41821289 C12.93021852 101.76709209 12.80692923 104.11596913 12.68359375 106.46484375 C12.62947327 107.55340668 12.57535278 108.6419696 12.51959229 109.76351929 C12.46599548 110.77475861 12.41239868 111.78599792 12.35717773 112.82788086 C12.31213608 113.70939316 12.26709442 114.59090546 12.22068787 115.49913025 C12 118 12 118 11 123 C5.06 123 -0.88 123 -7 123 C-6.85361084 120.69169189 -6.70722168 118.38338379 -6.55639648 116.00512695 C-6.03130847 107.64487404 -5.55779277 99.28201417 -5.09765625 90.91796875 C-5.01425444 89.41042257 -4.93079236 87.90287973 -4.84727478 86.39533997 C-4.6289267 82.45192043 -4.41119541 78.50846713 -4.19366455 74.56500244 C-3.80822314 67.57845095 -3.42193156 60.59194652 -3.03515625 53.60546875 C-2.99307667 52.84502132 -2.95099709 52.0845739 -2.90764236 51.30108261 C-1.96077083 34.19944299 -0.98303759 17.09959373 0 0 Z " fill="#2B2820" transform="translate(85,529)"/>
<path d="M0 0 C7.92 0 15.84 0 24 0 C24 15.84 24 31.68 24 48 C40.5 48 57 48 74 48 C74 32.16 74 16.32 74 0 C82.25 0 90.5 0 99 0 C99 40.59 99 81.18 99 123 C90.75 123 82.5 123 74 123 C74 103.2 74 83.4 74 63 C57.5 63 41 63 24 63 C24 82.8 24 102.6 24 123 C16.08 123 8.16 123 0 123 C0 82.41 0 41.82 0 0 Z " fill="#2C2820" transform="translate(605,529)"/>
<path d="M0 0 C7.26 0 14.52 0 22 0 C26.31901706 10.11860626 30.18396734 20.37118377 34 30.6875 C34.68443833 32.53260105 35.36901247 34.37765172 36.05371094 36.22265625 C43.92898918 57.4588115 51.75444498 78.71353845 59.578125 99.96875 C59.96607239 101.02238235 60.35401978 102.07601471 60.75372314 103.16157532 C61.12277771 104.16464218 61.49183228 105.16770905 61.87207031 106.20117188 C62.18799133 107.05964722 62.50391235 107.91812256 62.82940674 108.8026123 C64.56093591 113.53215436 66.27879651 118.26669039 68 123 C58.76 123 49.52 123 40 123 C36.04 112.44 32.08 101.88 28 91 C6.22 90.505 6.22 90.505 -16 90 C-16.66 92.97 -17.32 95.94 -18 99 C-18.46664285 100.71122314 -18.9529536 102.41741884 -19.47265625 104.11328125 C-19.73240234 104.96857422 -19.99214844 105.82386719 -20.25976562 106.70507812 C-20.52466797 107.56552734 -20.78957031 108.42597656 -21.0625 109.3125 C-21.59584784 111.05835085 -22.12842928 112.80443606 -22.66015625 114.55078125 C-22.89355713 115.31044189 -23.12695801 116.07010254 -23.36743164 116.8527832 C-23.96655479 118.88647216 -24.48579935 120.94319738 -25 123 C-31.6 123 -38.2 123 -45 123 C-42.66961102 114.83638932 -39.82648957 106.92617067 -36.8359375 98.984375 C-36.32521951 97.62060319 -35.81481572 96.25671368 -35.30470276 94.89271545 C-34.22387885 92.00434979 -33.14116152 89.11670456 -32.05685425 86.22964478 C-29.51182486 79.45297624 -26.97644136 72.67269661 -24.43990135 65.89284706 C-23.58963374 63.62053252 -22.73897392 61.34836509 -21.88825989 59.07621765 C-16.86928354 45.66802899 -11.89300826 32.24428244 -6.9375 18.8125 C-6.57493103 17.83011353 -6.21236206 16.84772705 -5.83880615 15.83557129 C-3.891001 10.55761153 -1.94515379 5.2789387 0 0 Z " fill="#2B2720" transform="translate(882,529)"/>
<path d="M0 0 C7.26 0 14.52 0 22 0 C23.17175781 3.20074219 24.34351563 6.40148437 25.55078125 9.69921875 C35.46576363 36.83258949 35.46576363 36.83258949 45.625 63.875 C49.98692599 75.30314194 54.29705769 86.74998552 58.57513428 98.20977783 C59.31323119 100.1856096 60.05251858 102.16099709 60.79302979 104.13592529 C61.82744163 106.89543007 62.85763056 109.65647499 63.88671875 112.41796875 C64.35924828 113.67508415 64.35924828 113.67508415 64.84132385 114.95759583 C67 120.77148546 67 120.77148546 67 123 C58.09 123 49.18 123 40 123 C36.93555874 115.64534098 33.92551765 108.3456177 31.1875 100.875 C30.72053711 99.62203125 30.72053711 99.62203125 30.24414062 98.34375 C29.95087891 97.54710937 29.65761719 96.75046875 29.35546875 95.9296875 C29.09403076 95.22054199 28.83259277 94.51139648 28.56323242 93.78076172 C28 92 28 92 28 90 C13.48 90 -1.04 90 -16 90 C-16.33 91.65 -16.66 93.3 -17 95 C-17.58127913 97.04181118 -18.187517 99.07660834 -18.8125 101.10546875 C-19.16570313 102.25337891 -19.51890625 103.40128906 -19.8828125 104.58398438 C-20.43582031 106.36772461 -20.43582031 106.36772461 -21 108.1875 C-21.36867188 109.38826172 -21.73734375 110.58902344 -22.1171875 111.82617188 C-24.86784334 120.73568667 -24.86784334 120.73568667 -26 123 C-32.27 123 -38.54 123 -45 123 C-42.95057227 115.92709685 -40.62257607 109.03691646 -38.03515625 102.14453125 C-37.64934891 101.1082106 -37.26354156 100.07188995 -36.86604309 99.00416565 C-36.03410571 96.76985824 -35.20084866 94.53604185 -34.36639404 92.30267334 C-32.1265659 86.30725638 -29.89663519 80.30816736 -27.66796875 74.30859375 C-27.43759666 73.68865288 -27.20722458 73.06871201 -26.96987152 72.42998505 C-23.37407756 62.750101 -19.82232032 53.05478863 -16.30078125 43.34765625 C-16.0708227 42.71393663 -15.84086414 42.08021702 -15.60393715 41.42729378 C-13.15502454 34.67722631 -10.71235584 27.92491577 -8.27368164 21.17114258 C-7.47153243 18.95523527 -6.66936851 16.73933329 -5.8671875 14.5234375 C-5.50349564 13.51237442 -5.13980377 12.50131134 -4.76509094 11.45960999 C-4.42866074 10.5311174 -4.09223053 9.60262482 -3.74560547 8.64599609 C-3.45507294 7.84068451 -3.16454041 7.03537292 -2.86520386 6.20565796 C-2.03319178 4.08461558 -1.01892736 2.03785473 0 0 Z " fill="#2B2820" transform="translate(767,529)"/>
<path d="M0 0 C7.92 0 15.84 0 24 0 C24.495 26.235 24.495 26.235 25 53 C33.75803899 43.56117541 33.75803899 43.56117541 42.29296875 33.95703125 C44.33633431 31.6144085 46.41680859 29.30726578 48.5 27 C51.75899377 23.38868258 54.97928181 19.7481153 58.171875 16.078125 C61.07071731 12.78285981 64.02907691 9.54150298 66.984375 6.296875 C69.00887616 4.12589379 69.00887616 4.12589379 70.27954102 1.88085938 C72 0 72 0 74.54370117 -0.45410156 C75.53345947 -0.4331543 76.52321777 -0.41220703 77.54296875 -0.390625 C78.61611328 -0.37773438 79.68925781 -0.36484375 80.79492188 -0.3515625 C81.91447266 -0.31804688 83.03402344 -0.28453125 84.1875 -0.25 C85.31865234 -0.23195313 86.44980469 -0.21390625 87.61523438 -0.1953125 C90.41100376 -0.14812652 93.20507972 -0.08230595 96 0 C93.00402597 4.79647423 89.5845537 8.78932486 85.6875 12.875 C84.51608567 14.11899989 83.3455045 15.36378488 82.17578125 16.609375 C81.62100098 17.19912109 81.0662207 17.78886719 80.49462891 18.39648438 C78.1976703 20.86078103 75.99783295 23.40350044 73.796875 25.953125 C71.44634412 28.63068627 69.03654523 31.25255761 66.625 33.875 C65.92189697 34.64106567 65.92189697 34.64106567 65.20458984 35.42260742 C62.93942584 37.89053446 60.67144379 40.35568923 58.3984375 42.81640625 C57.60695313 43.68136719 56.81546875 44.54632812 56 45.4375 C55.29875 46.19933594 54.5975 46.96117187 53.875 47.74609375 C51.96163491 50.04611804 50.46854456 52.39792261 49 55 C49.83402344 55.95519531 50.66804688 56.91039062 51.52734375 57.89453125 C57.35198389 64.58092277 63.11013526 71.29930464 68.69140625 78.19140625 C71.41344091 81.5029848 74.20139731 84.75313059 77 88 C81.2902384 92.97828916 85.48965729 98.01663548 89.625 103.125 C91.45393859 105.33897829 93.304776 107.51991941 95.1875 109.6875 C95.73599609 110.31978516 96.28449219 110.95207031 96.84960938 111.60351562 C97.93024576 112.84528833 99.01474521 114.08371229 100.10351562 115.31835938 C102.31878477 117.86461237 103.92141737 119.76425212 105 123 C74.89822336 125.24759223 74.89822336 125.24759223 68.8125 120.59765625 C66.37719045 117.99613372 64.65957856 115.03359206 63.03222656 111.87744141 C61.2574799 108.64948449 58.88461187 105.90792169 56.5625 103.0625 C55.64570143 101.88783654 54.73034149 100.71204887 53.81640625 99.53515625 C50.97869358 95.9340939 48.00480207 92.46193876 45 89 C40.84808164 84.20901252 36.80494578 79.35014412 32.875 74.375 C32.41351563 73.79492188 31.95203125 73.21484375 31.4765625 72.6171875 C29.32009945 69.86315035 27.39691962 67.21762384 26 64 C25.34 64 24.68 64 24 64 C24 83.47 24 102.94 24 123 C16.08 123 8.16 123 0 123 C0 82.41 0 41.82 0 0 Z " fill="#2C2820" transform="translate(379,529)"/>
<path d="M0 0 C8.41620521 5.19920013 12.81426686 14.12512877 15.45703125 23.3828125 C19.37720754 42.27862628 18.63858924 65.91226608 9 83 C4.19604493 90.16763229 -1.58675754 94.80981923 -10 97 C-20.71333688 98.2833088 -30.83419413 97.01597589 -39.75 90.625 C-50.39461182 80.38979632 -52.95465422 64.24917492 -53.29833984 50.17749023 C-53.39317316 34.75726679 -51.89560312 18.10211412 -41.734375 5.71484375 C-30.31804496 -5.57292401 -14.16912358 -7.38455952 0 0 Z " fill="#FDFDFD" transform="translate(316,544)"/>
<path d="M0 0 C0.495 0.495 0.495 0.495 1 1 C0.77928464 7.36061541 -0.00046331 13.71719795 -1 20 C-4.45255686 18.657339 -7.78512479 17.16264917 -11.125 15.5625 C-21.06963604 11.05070539 -31.5911105 7.69918085 -42.375 11.1875 C-46.66793697 13.00874599 -48.93220384 15.86440768 -51 20 C-51.50571563 25.07373719 -51.59436791 29.56811368 -49.625 34.3125 C-42.5196948 41.58697913 -32.89829729 44.81391712 -23.69287109 48.6784668 C-17.45559865 51.31731283 -11.51885594 54.02555971 -6 58 C-5.28972656 58.495 -4.57945312 58.99 -3.84765625 59.5 C2.4833624 64.40447627 7.07102279 70.98769422 8.31347656 79.02880859 C9.38104406 90.78009809 7.47477996 101.82682638 -0.19140625 111.15625 C-10.48396985 121.64888504 -24.27701767 125.00916989 -38.58911133 125.29199219 C-52.62869358 125.39307429 -64.26900748 123.25382089 -77 117 C-77.11044961 110.26257354 -76.70132913 103.70019789 -76 97 C-71.47079402 98.37726233 -67.49069796 100.22214989 -63.3125 102.4375 C-52.20729567 108.10348029 -39.89422755 111.79633753 -27.5 107.875 C-23.15252868 105.54599751 -19.9538636 102.98310208 -18.38671875 98.08203125 C-17.47498404 93.17339892 -17.50298051 88.58424962 -19 83.8125 C-24.41914581 76.1918262 -32.99769184 72.96888536 -41.375 69.5 C-62.18003632 60.82289952 -62.18003632 60.82289952 -69 53 C-69.70125 52.236875 -70.4025 51.47375 -71.125 50.6875 C-76.98668278 42.28575469 -77.01608735 32.89644594 -76 23 C-74.231396 14.43506241 -68.89385324 7.63331528 -61.9375 2.46875 C-59.67662797 1.10557716 -57.43155437 0.02858909 -55 -1 C-54.07832031 -1.391875 -53.15664063 -1.78375 -52.20703125 -2.1875 C-35.64211837 -8.23400812 -16.39430632 -5.38274598 0 0 Z " fill="#2B2720" transform="translate(574,530)"/>
<path d="M0 0 C3.39629879 1.60778915 6.31583232 3.23528762 8.69140625 6.1953125 C9.0521698 8.64408875 9.0521698 8.64408875 9.03198242 11.5847168 C9.03175583 12.68563156 9.03152924 13.78654633 9.03129578 14.92082214 C9.01581192 16.10839615 9.00032806 17.29597015 8.984375 18.51953125 C8.98013016 19.73606888 8.97588531 20.95260651 8.97151184 22.20600891 C8.95469476 26.09850021 8.91703584 29.99047721 8.87890625 33.8828125 C8.86386338 36.51887274 8.85017429 39.15494108 8.83789062 41.79101562 C8.80478124 48.2592906 8.7545513 54.72726481 8.69140625 61.1953125 C9.366875 60.90438721 10.04234375 60.61346191 10.73828125 60.3137207 C11.6303125 59.94077881 12.52234375 59.56783691 13.44140625 59.18359375 C14.323125 58.81016846 15.20484375 58.43674316 16.11328125 58.05200195 C20.35069149 56.64394584 23.67891587 57.18906731 27.69140625 59.1953125 C28.05878906 58.30005859 28.05878906 58.30005859 28.43359375 57.38671875 C31.52198904 52.00600522 38.83167652 48.56851079 44.6015625 46.671875 C52.10801276 44.96012373 57.73466593 46.05160476 64.4296875 49.76171875 C68.01854273 52.0365199 71.46080486 54.42779267 73.91796875 57.95703125 C74.50320313 58.36566406 75.0884375 58.77429688 75.69140625 59.1953125 C78.98798161 58.65800994 78.98798161 58.65800994 82.62890625 57.3828125 C93.57496064 54.13014993 103.25827473 53.84452978 113.69140625 59.1953125 C114.68140625 60.1853125 115.67140625 61.1753125 116.69140625 62.1953125 C59.27140625 62.1953125 1.85140625 62.1953125 -57.30859375 62.1953125 C-57.30859375 49.1953125 -57.30859375 49.1953125 -55.30859375 46.2578125 C-52.85835565 42.50588541 -53.2156666 40.85596853 -53.43359375 36.4453125 C-53.6331668 29.17624786 -52.14961398 24.64403527 -47.30859375 19.1953125 C-43.67834571 15.90119854 -40.1164397 13.94686563 -35.18359375 13.5703125 C-30.31180347 14.35608513 -28.73999791 15.76390834 -25.30859375 19.1953125 C-25.26992187 18.32519531 -25.26992187 18.32519531 -25.23046875 17.4375 C-24.77315236 11.13900602 -23.55978383 7.03353387 -18.6171875 2.71875 C-12.80844348 -1.48232144 -6.81539908 -2.3755875 0 0 Z " fill="#45AC30" transform="translate(223.30859375,432.8046875)"/>
<path d="M0 0 C6.22318086 3.17260201 8.79003671 7.81974774 11.0625 14.3125 C11.55898669 17.30574185 11.86346388 20.28577826 12.0625 23.3125 C12.82433594 22.9515625 13.58617187 22.590625 14.37109375 22.21875 C22.23079418 18.68630037 28.10576698 16.66025566 36.4375 19.4375 C39.64827578 21.73091127 40.71027434 23.63144126 42.0625 27.3125 C42.0625 28.6325 42.0625 29.9525 42.0625 31.3125 C42.5471875 31.01214844 43.031875 30.71179688 43.53125 30.40234375 C47.91118563 27.91757258 51.15425044 26.65407671 56.17578125 27.640625 C60.78811002 29.28311061 63.44179991 32.26373089 65.875 36.375 C68.14752627 41.99651236 68.74869792 47.27014612 68.0625 53.3125 C66.40626209 56.74766011 65.29126908 58.65477702 61.91816711 60.46029663 C58.26142817 61.55156012 54.83375428 61.5321887 51.05932617 61.44775391 C50.26855682 61.43829239 49.47778748 61.42883087 48.66305542 61.41908264 C46.06028551 61.38551816 43.45800321 61.33737242 40.85546875 61.2890625 C39.04658771 61.26288367 37.23769325 61.23761761 35.42878723 61.21322632 C30.67590301 61.14669 25.92330224 61.06777241 21.1706543 60.98626709 C15.463881 60.89097929 9.75687392 60.81108457 4.04990387 60.72860718 C-4.61280032 60.6016909 -13.27497695 60.45523585 -21.9375 60.3125 C-21.9375 40.5125 -21.9375 20.7125 -21.9375 0.3125 C-14.29613233 -2.23462256 -7.61235704 -3.10272638 0 0 Z " fill="#46AD30" transform="translate(758.9375,433.6875)"/>
<path d="M0 0 C12.21 0 24.42 0 37 0 C37 28.71 37 57.42 37 87 C24.79 87 12.58 87 0 87 C0 58.29 0 29.58 0 0 Z " fill="#2B2820" transform="translate(424,408)"/>
<path d="M0 0 C27.06 0 54.12 0 82 0 C82 11.88 82 23.76 82 36 C54.94 36 27.88 36 0 36 C0 24.12 0 12.24 0 0 Z " fill="#2C2921" transform="translate(266,432)"/>
<path d="M0 0 C14 0 14 0 17.0625 2.39453125 C17.701875 3.52246094 18.34125 4.65039062 19 5.8125 C19.79294755 7.10918074 20.59006066 8.40332044 21.390625 9.6953125 C21.80376953 10.39301758 22.21691406 11.09072266 22.64257812 11.80957031 C25.10096796 15.77659793 27.94920417 19.45843373 30.75 23.1875 C31.80857388 24.61754132 32.86580782 26.04857526 33.921875 27.48046875 C35.26765625 29.30191406 36.6134375 31.12335937 38 33 C42.62 39.27 47.24 45.54 52 52 C52.33 34.84 52.66 17.68 53 0 C56.96 0 60.92 0 65 0 C65 25.41 65 50.82 65 77 C51 77 51 77 47.09765625 73.546875 C46.03878644 71.97874321 45.02882812 70.3767921 44.0625 68.75 C42.90589554 67.00241524 41.74696044 65.25637118 40.5859375 63.51171875 C39.71146973 62.14926025 39.71146973 62.14926025 38.81933594 60.75927734 C35.81618918 56.20458536 32.49506342 51.89836445 29.1875 47.5625 C27.93757014 45.90196827 26.68883457 44.24053676 25.44140625 42.578125 C24.85633301 41.80017578 24.27125977 41.02222656 23.66845703 40.22070312 C22.13948123 38.18564842 20.61368308 36.14827736 19.08984375 34.109375 C18.66614502 33.54275146 18.24244629 32.97612793 17.8059082 32.39233398 C16.71657994 30.93501681 15.6277962 29.47729266 14.5390625 28.01953125 C13.15637263 26.11177183 13.15637263 26.11177183 12 25 C12 42.49 12 59.98 12 78 C8.04 78 4.08 78 0 78 C0 52.26 0 26.52 0 0 Z " fill="#2C2821" transform="translate(471,694)"/>
<path d="M0 0 C1.93166016 0.01740234 1.93166016 0.01740234 3.90234375 0.03515625 C5.19269531 0.04417969 6.48304688 0.05320312 7.8125 0.0625 C8.81152344 0.07410156 9.81054688 0.08570313 10.83984375 0.09765625 C14.19841403 9.1024629 17.55410159 18.10833699 20.90615654 27.11557102 C22.46288833 31.29835706 24.02059488 35.48077455 25.58056641 39.66235352 C27.0871603 43.70096246 28.59114485 47.74053436 30.09335709 51.78077507 C30.6657319 53.31880913 31.23903176 54.85649928 31.81328964 56.39383125 C32.62003409 58.55403841 33.42342268 60.71546658 34.22607422 62.87719727 C34.6835202 64.10519547 35.14096619 65.33319366 35.61227417 66.59840393 C36.82430352 70.053358 37.83398459 73.57714917 38.83984375 77.09765625 C33.22984375 77.09765625 27.61984375 77.09765625 21.83984375 77.09765625 C20.66697636 74.16249575 19.50135368 71.22480783 18.33984375 68.28515625 C18.00597656 67.45177734 17.67210937 66.61839844 17.328125 65.75976562 C17.01230469 64.95732422 16.69648438 64.15488281 16.37109375 63.328125 C16.07783203 62.58973389 15.78457031 61.85134277 15.48242188 61.09057617 C14.83984375 59.09765625 14.83984375 59.09765625 14.83984375 56.09765625 C5.59984375 56.09765625 -3.64015625 56.09765625 -13.16015625 56.09765625 C-14.15015625 59.72765625 -15.14015625 63.35765625 -16.16015625 67.09765625 C-17.1328882 70.44017139 -18.14652895 73.76716656 -19.16015625 77.09765625 C-23.45015625 77.09765625 -27.74015625 77.09765625 -32.16015625 77.09765625 C-27.66074727 64.17996385 -22.94591697 51.34918772 -18.16015625 38.53515625 C-17.46731679 36.67648116 -16.77460801 34.81775736 -16.08203125 32.95898438 C-14.74164062 29.36234634 -13.39905753 25.76653908 -12.0546875 22.17138672 C-10.81675217 18.86016196 -9.58518621 15.54668835 -8.359375 12.23095703 C-8.08174316 11.48282242 -7.80411133 10.73468781 -7.51806641 9.96388245 C-7.0012428 8.5710821 -6.48647678 7.1775159 -5.97412109 5.7830658 C-3.86711559 0.11950295 -3.86711559 0.11950295 0 0 Z " fill="#29261F" transform="translate(264.16015625,693.90234375)"/>
<path d="M0 0 C4.95 0 9.9 0 15 0 C15.01458252 1.65451172 15.02916504 3.30902344 15.04418945 5.01367188 C15.10230564 11.17144017 15.17953872 17.3288479 15.26245117 23.48632812 C15.29725787 26.14782607 15.32368761 28.80903143 15.34643555 31.47070312 C15.38009589 35.30368497 15.43242014 39.13603516 15.48828125 42.96875 C15.49467117 44.15239136 15.5010611 45.33603271 15.50764465 46.55554199 C15.64102851 57.15321737 15.64102851 57.15321737 21 65.9375 C24.98987536 68.05712128 28.35368056 68.19301828 32.8125 68.25 C34.61654297 68.28867187 34.61654297 68.28867187 36.45703125 68.328125 C40.93656449 67.91326194 44.44981446 66.83049306 47.42578125 63.31640625 C50.04357706 58.13847533 51.11107042 54.35169446 51.20532227 48.58886719 C51.22526749 47.50804871 51.24521271 46.42723022 51.26576233 45.31365967 C51.29083107 43.57285126 51.29083107 43.57285126 51.31640625 41.796875 C51.33718735 40.60394836 51.35796844 39.41102173 51.37937927 38.1819458 C51.44476239 34.37135577 51.50370776 30.56069686 51.5625 26.75 C51.60569589 24.16665954 51.64931052 21.58332605 51.69335938 19 C51.80043237 12.66673726 51.90173174 6.33340523 52 0 C55.63 0 59.26 0 63 0 C63.09081766 7.25912543 63.16401089 14.51793397 63.20724869 21.77750969 C63.22801376 25.14941602 63.25612389 28.52090938 63.30175781 31.89257812 C63.35056663 35.78005653 63.37303643 39.66695735 63.390625 43.5546875 C63.41127014 44.74988007 63.43191528 45.94507263 63.45318604 47.17648315 C63.45560774 56.31770174 62.02034723 63.89747232 55.8125 70.875 C46.82489199 79.08781422 35.67384783 79.68533692 24.09863281 79.18359375 C16.62086919 78.52941992 10.13312639 75.3835228 5 70 C1.11520319 64.43596844 -0.12783692 59.82767841 -0.11352539 53.12988281 C-0.11344986 51.94896057 -0.11337433 50.76803833 -0.11329651 49.55133057 C-0.10813522 48.28142273 -0.10297394 47.01151489 -0.09765625 45.703125 C-0.0962413 44.39921814 -0.09482635 43.09531128 -0.09336853 41.75189209 C-0.08955867 38.29296945 -0.07974151 34.83408909 -0.06866455 31.37518311 C-0.05841746 27.84257581 -0.05386385 24.30996164 -0.04882812 20.77734375 C-0.03811782 13.85154342 -0.02053346 6.9257781 0 0 Z " fill="#29261F" transform="translate(564,694)"/>
<path d="M0 0 C5.61 0 11.22 0 17 0 C19.86063582 6.99416525 22.44763651 14.02611236 24.85546875 21.1875 C25.20257401 22.21182129 25.54967926 23.23614258 25.90730286 24.29150391 C27.00328376 27.52680259 28.09565211 30.76330441 29.1875 34 C30.29052233 37.26509987 31.39433801 40.52992563 32.49983215 43.79418945 C33.18471884 45.81694097 33.86810705 47.84020059 34.54985046 49.86401367 C35.01086906 51.22683472 35.01086906 51.22683472 35.48120117 52.6171875 C35.88613045 53.81770752 35.88613045 53.81770752 36.29924011 55.04248047 C36.97063459 57.04092862 36.97063459 57.04092862 38 59 C38.39130348 57.91338829 38.39130348 57.91338829 38.79051208 56.80482483 C41.24498921 49.99054383 43.7021525 43.17724051 46.16236782 36.36502934 C47.42720482 32.86246072 48.69098589 29.3595185 49.95239258 25.85571289 C51.16890519 22.47672943 52.38814066 19.09874022 53.60930061 15.72143364 C54.07558125 14.4303461 54.54086614 13.13889852 55.00515556 11.84709358 C55.65374281 10.04303748 56.30614575 8.24035455 56.95874023 6.43774414 C57.32958237 5.40960098 57.7004245 4.38145782 58.08250427 3.32215881 C59 1 59 1 60 0 C62.18639453 -0.07258946 64.37500389 -0.08373783 66.5625 -0.0625 C68.35880859 -0.04896484 68.35880859 -0.04896484 70.19140625 -0.03515625 C71.11824219 -0.02355469 72.04507813 -0.01195312 73 0 C70.85640821 7.74551168 68.07930281 15.13924366 65.0703125 22.5859375 C64.36199783 24.35319687 64.36199783 24.35319687 63.63937378 26.15615845 C62.39174396 29.26641714 61.14032474 32.37509477 59.88708496 35.48309326 C58.87562375 37.99408664 57.8679849 40.50660487 56.86055183 43.01921654 C52.30712278 54.37487831 47.72411076 65.71409409 43 77 C38.05 77 33.1 77 28 77 C27.36497559 75.29650391 26.72995117 73.59300781 26.07568359 71.83789062 C23.95243072 66.14223293 21.82903301 60.44662925 19.70554161 54.75106049 C18.16942905 50.63092407 16.63343895 46.51074203 15.09756088 42.39051819 C14.35225902 40.39125313 13.60683326 38.3920343 12.86138916 36.39282227 C11.89161422 33.79193255 10.92239394 31.1908371 9.95355225 28.58959961 C7.96476902 23.25290229 5.97382461 17.91734577 3.95019531 12.59375 C3.66222076 11.83453247 3.37424622 11.07531494 3.07754517 10.29309082 C2.35871844 8.40200091 1.63587289 6.51243986 0.91259766 4.62304688 C0 2 0 2 0 0 Z " fill="#2A2720" transform="translate(308,694)"/>
<path d="M0 0 C0.08159574 4.16138263 -0.01751476 7.9472484 -1 12 C-1.56847656 11.80664062 -2.13695312 11.61328125 -2.72265625 11.4140625 C-5.14458081 10.59731999 -7.57175699 9.79774009 -10 9 C-11.175625 8.608125 -12.35125 8.21625 -13.5625 7.8125 C-18.93516373 6.54259766 -23.1806906 6.27227624 -28.4375 8.375 C-31.08856572 9.74725665 -31.08856572 9.74725665 -32 12 C-32.73652432 17.67759267 -32.73652432 17.67759267 -30.08984375 22.48828125 C-25.41167259 26.29114352 -20.12315512 28.192857 -14.56835938 30.4296875 C-7.38050556 33.46757288 -1.69503667 37.37854447 3 43.6875 C5.11916323 50.70722819 5.01299407 57.61642882 2.0625 64.375 C-1.60512637 70.81924746 -6.79161107 74.0388091 -13.78125 76.1328125 C-17.93369835 77.09185225 -21.93420315 77.38341551 -26.1875 77.375 C-26.91710937 77.37556396 -27.64671875 77.37612793 -28.3984375 77.37670898 C-34.65299105 77.25186351 -44.39033928 76.60966072 -49 72 C-49.26865672 63.80597015 -49.26865672 63.80597015 -48 60 C-45.56896043 60.94682594 -43.1877065 61.90648804 -40.8515625 63.0703125 C-33.65506304 66.47918066 -25.83845721 67.44227613 -18 66 C-15.11802191 63.76791764 -13.36475341 62.25303525 -12.3359375 58.71875 C-12.34882812 57.9865625 -12.36171875 57.254375 -12.375 56.5 C-12.36210938 55.7678125 -12.34921875 55.035625 -12.3359375 54.28125 C-13.37238085 50.72076226 -15.12348472 49.33260567 -18 47 C-22.04759163 44.87203488 -26.28990096 43.20988535 -30.51953125 41.48242188 C-37.39730644 38.56066023 -42.93324744 35.33347187 -46.9375 28.875 C-48.95615047 23.14914237 -49.27418406 16.31070048 -47.0859375 10.625 C-43.53579836 4.5783114 -38.39256789 -0.23210292 -31.65234375 -2.49609375 C-21.0395664 -4.51236515 -10.20048722 -3.30189182 0 0 Z " fill="#29261F" transform="translate(774,696)"/>
<path d="M0 0 C15.51 0 31.02 0 47 0 C47 3.3 47 6.6 47 10 C36.44 10 25.88 10 15 10 C15 17.59 15 25.18 15 33 C24.24 33 33.48 33 43 33 C43 35.97 43 38.94 43 42 C33.76 42 24.52 42 15 42 C15 50.58 15 59.16 15 68 C26.22 68 37.44 68 49 68 C49 70.97 49 73.94 49 77 C32.83 77 16.66 77 0 77 C0 51.59 0 26.18 0 0 Z " fill="#2D2A22" transform="translate(399,694)"/>
<path d="M0 0 C15.18 0 30.36 0 46 0 C46 3.3 46 6.6 46 10 C35.77 10 25.54 10 15 10 C15 17.59 15 25.18 15 33 C23.91 33 32.82 33 42 33 C42 35.97 42 38.94 42 42 C33.09 42 24.18 42 15 42 C15 50.58 15 59.16 15 68 C26.55 68 38.1 68 50 68 C50 70.97 50 73.94 50 77 C33.5 77 17 77 0 77 C0 51.59 0 26.18 0 0 Z " fill="#28251D" transform="translate(655,694)"/>
<path d="M0 0 C3.37809277 1.59917052 6.39227027 3.1976143 8.69140625 6.1953125 C9.03198242 9.19799805 9.03198242 9.19799805 8.984375 12.83203125 C8.96987305 14.78012695 8.96987305 14.78012695 8.95507812 16.76757812 C8.9300121 18.13932889 8.90461726 19.51107368 8.87890625 20.8828125 C8.86385645 22.26626174 8.85016855 23.64972651 8.83789062 25.03320312 C8.80247848 28.42096457 8.75308679 31.80794389 8.69140625 35.1953125 C8.10190186 35.23849609 7.51239746 35.28167969 6.9050293 35.32617188 C-0.06162739 35.94688554 -4.83801514 37.6966641 -10.30859375 42.1953125 C-12.63605961 45.03639409 -14.54840768 47.97545993 -16.30859375 51.1953125 C-18.83104867 48.67285758 -21.34824169 46.15368217 -23.80859375 43.5703125 C-28.89850977 38.73489228 -33.34584624 37.17070915 -40.30859375 37.1953125 C-43.57673779 37.89472186 -43.57673779 37.89472186 -46.30859375 39.1953125 C-47.05109375 39.4840625 -47.79359375 39.7728125 -48.55859375 40.0703125 C-50.72856097 41.46529142 -51.36331635 42.83211901 -52.30859375 45.1953125 C-52.96859375 44.8653125 -53.62859375 44.5353125 -54.30859375 44.1953125 C-53.97859375 43.2053125 -53.64859375 42.2153125 -53.30859375 41.1953125 C-53.39048604 39.34002859 -53.49788263 37.48581108 -53.62109375 35.6328125 C-53.6624354 28.80317148 -51.74056918 24.35337753 -47.30859375 19.1953125 C-43.68824366 15.89528145 -40.11095762 13.94644715 -35.18359375 13.5703125 C-30.31180347 14.35608513 -28.73999791 15.76390834 -25.30859375 19.1953125 C-25.2828125 18.61523438 -25.25703125 18.03515625 -25.23046875 17.4375 C-24.77315236 11.13900602 -23.55978383 7.03353387 -18.6171875 2.71875 C-12.80844348 -1.48232144 -6.81539908 -2.3755875 0 0 Z " fill="#0C953F" transform="translate(223.30859375,432.8046875)"/>
<path d="M0 0 C0.63761322 3.27551021 0.93091807 4.87338075 0 8 C-3.22601279 11.23717271 -7.04351487 13.45399888 -10.9375 15.8125 C-12.03328369 16.50754639 -13.12906738 17.20259277 -14.25805664 17.91870117 C-16.46950448 19.31924704 -18.68815268 20.70849213 -20.9140625 22.0859375 C-24.27634371 24.17140306 -27.59404851 26.31688859 -30.90454102 28.4831543 C-32.92902591 29.80695882 -34.96101004 31.11833898 -36.99609375 32.42578125 C-41.17012679 35.10784563 -45.33543301 37.8032683 -49.5 40.5 C-50.91663176 41.41672061 -52.33329837 42.33338737 -53.75 43.25 C-54.801875 43.930625 -54.801875 43.930625 -55.875 44.625 C-62.25 48.75 -62.25 48.75 -64.37353516 50.12402344 C-65.79511955 51.04389136 -67.21666883 51.96381354 -68.63818359 52.88378906 C-72.10432831 55.12691496 -75.57100752 57.3692035 -79.0390625 59.609375 C-87.24471445 64.91120035 -95.4390373 70.23032245 -103.625 75.5625 C-104.60186768 76.19841064 -105.57873535 76.83432129 -106.58520508 77.48950195 C-110.98554209 80.35928696 -115.37603952 83.24061126 -119.73046875 86.1796875 C-120.42897949 86.65075928 -121.12749023 87.12183105 -121.84716797 87.60717773 C-123.12123945 88.4695896 -124.39258409 89.33604919 -125.66064453 90.20727539 C-129.78200531 93 -129.78200531 93 -132 93 C-132.2109375 90.69140625 -132.2109375 90.69140625 -132 88 C-127.69176994 82.84775996 -120.58831736 79.37467034 -114.99609375 75.6640625 C-108.12366197 71.0932217 -101.27125084 66.4937849 -94.43359375 61.87109375 C-93.53463379 61.26359787 -92.63567383 60.65610199 -91.70947266 60.03019714 C-88.02732914 57.54149771 -84.34556951 55.05223627 -80.6652832 52.56079102 C-70.10129107 45.41085727 -59.50121408 38.33369 -48.77270508 31.43286133 C-43.51962815 28.05277353 -38.31876911 24.59533695 -33.125 21.125 C-32.12194824 20.45662109 -31.11889648 19.78824219 -30.08544922 19.09960938 C-25.13751362 15.79524346 -20.20846541 12.46689263 -15.3125 9.0859375 C-14.4344873 8.47991699 -13.55647461 7.87389648 -12.65185547 7.24951172 C-11.00194462 6.10716765 -9.3549888 4.9605404 -7.71142578 3.80908203 C-6.9842334 3.30489746 -6.25704102 2.80071289 -5.5078125 2.28125 C-4.55865967 1.61706055 -4.55865967 1.61706055 -3.59033203 0.93945312 C-2 0 -2 0 0 0 Z " fill="#F6F6F5" transform="translate(674,341)"/>
<path d="M0 0 C0 2.97 0 5.94 0 9 C-10.29464157 13.94813729 -20.59619982 18.88052654 -30.9375 23.73046875 C-31.62017944 24.05066483 -32.30285889 24.3708609 -33.00622559 24.70075989 C-34.41307787 25.36053152 -35.81993832 26.02028575 -37.22680664 26.68002319 C-50.1770575 32.75353484 -63.07564322 38.92228301 -75.93264771 45.19070435 C-86.78593942 50.47935102 -97.69553893 55.6311692 -108.66943359 60.66479492 C-115.06434585 63.60414727 -121.37125748 66.66536065 -127.62573242 69.89404297 C-130 71 -130 71 -132 71 C-132 69.02 -132 67.04 -132 65 C-120.14236971 59.05949836 -108.28359919 53.12127942 -96.4234457 47.18581676 C-90.91383572 44.42842426 -85.40459277 41.6703041 -79.89624023 38.91040039 C-74.56083045 36.23718386 -69.22438932 33.56603611 -63.88728523 30.89620399 C-61.87123289 29.88726792 -59.85552699 28.87763923 -57.84020805 27.867239 C-46.19769405 22.03080724 -34.5177912 16.28755826 -22.75297451 10.70110607 C-16.23779025 7.60658581 -9.77795891 4.4190793 -3.3515625 1.14453125 C-1 0 -1 0 0 0 Z " fill="#F6F6F5" transform="translate(674,406)"/>
<path d="M0 0 C0.36088654 3.00105652 0.60795719 5.09546743 0 8 C-2.46237383 10.12926756 -4.28134921 11.32565084 -7.125 12.75 C-7.88345215 13.16209717 -8.6419043 13.57419434 -9.42333984 13.9987793 C-11.07209119 14.89100756 -12.72824325 15.76966299 -14.390625 16.63623047 C-17.91935099 18.48049164 -21.4045946 20.40072868 -24.89477539 22.31665039 C-27.68423291 23.84495283 -30.48047114 25.36031725 -33.27734375 26.875 C-39.91159938 30.48197393 -46.47800817 34.20520171 -53.04370117 37.93505859 C-59.34439653 41.51022869 -65.66887809 45.03915662 -72.00952148 48.54296875 C-87.56036908 57.13741198 -102.94047853 66.00146982 -118.203125 75.09765625 C-118.9976709 75.56969482 -119.7922168 76.0417334 -120.61083984 76.52807617 C-122.07718513 77.40038876 -123.54121522 78.27660988 -125.00244141 79.1574707 C-129.77769705 82 -129.77769705 82 -132 82 C-132.32080078 79.22680664 -132.32080078 79.22680664 -132 76 C-129.87060547 74.05639648 -129.87060547 74.05639648 -126.8671875 72.37109375 C-125.20997681 71.41771118 -125.20997681 71.41771118 -123.51928711 70.44506836 C-122.30468276 69.77559214 -121.08991629 69.10640997 -119.875 68.4375 C-118.63094583 67.7308756 -117.38819861 67.02194559 -116.14672852 66.31079102 C-113.62923984 64.87160555 -111.10604899 63.44333919 -108.57763672 62.0234375 C-103.64693614 59.24661161 -98.79518841 56.33951333 -93.9375 53.4375 C-82.78090075 46.83250692 -71.54441314 40.36667965 -60.30566406 33.90283203 C-57.05351687 32.03080579 -53.8036623 30.15486965 -50.5546875 28.27734375 C-38.88463128 21.53385755 -27.20103181 14.81456458 -15.5 8.125 C-14.8825592 7.77180695 -14.26511841 7.41861389 -13.62896729 7.05471802 C-11.88841969 6.05928964 -10.14734728 5.0647791 -8.40625 4.0703125 C-7.40916016 3.50070801 -6.41207031 2.93110352 -5.38476562 2.34423828 C-1.22593534 0 -1.22593534 0 0 0 Z " fill="#F7F7F6" transform="translate(674,374)"/>
<path d="M0 0 C0.2572202 2.87481403 0.43968472 5.18362317 0 8 C-2.17578125 10.4765625 -2.17578125 10.4765625 -5.3125 12.625 C-6.51309204 13.47515987 -7.71360833 14.32542672 -8.9140625 15.17578125 C-9.57051758 15.62646973 -10.22697266 16.0771582 -10.90332031 16.54150391 C-13.91767553 18.6383551 -16.85152477 20.83885654 -19.7956543 23.03271484 C-27.55016863 28.80289036 -35.38800597 34.45862749 -43.23144531 40.10693359 C-51.06791722 45.756364 -58.83945806 51.49278127 -66.60888672 57.23388672 C-70.56991162 60.15956103 -74.53515717 63.07950306 -78.5 66 C-80.08335379 67.1666389 -81.66668712 68.33330558 -83.25 69.5 C-92.75 76.5 -92.75 76.5 -95.12866211 78.25268555 C-96.6998048 79.41037815 -98.27093131 80.56809271 -99.84204102 81.72583008 C-103.98675346 84.7799874 -108.13180988 87.83367646 -112.27734375 90.88671875 C-113.14101563 91.52287109 -114.0046875 92.15902344 -114.89453125 92.81445312 C-116.54937555 94.03334382 -118.20431828 95.25210088 -119.859375 96.47070312 C-120.60574219 97.02048828 -121.35210938 97.57027344 -122.12109375 98.13671875 C-122.7752124 98.61842529 -123.42933105 99.10013184 -124.10327148 99.59643555 C-125.45940244 100.59996198 -126.79550982 101.63077609 -128.11743164 102.67895508 C-130 104 -130 104 -132 104 C-132.28125 101.75390625 -132.28125 101.75390625 -132 99 C-130.15625 96.96484375 -130.15625 96.96484375 -127.5 94.9375 C-126.48679687 94.15375 -125.47359375 93.37 -124.4296875 92.5625 C-123.28746296 91.70699037 -122.14419911 90.85286694 -121 90 C-119.81475519 89.10462843 -118.62986884 88.2087822 -117.4453125 87.3125 C-114.80267798 85.319767 -112.1513742 83.339125 -109.49609375 81.36328125 C-104.52787402 77.65897485 -99.60933061 73.89058387 -94.6875 70.125 C-87.83961225 64.89142659 -80.95017892 59.7219379 -74 54.625 C-67.22210879 49.65404127 -60.52697482 44.59840782 -53.88085938 39.45214844 C-40.72713167 29.29659647 -27.45761523 19.30322271 -14.04296875 9.49511719 C-12.16110155 8.11789984 -10.28301034 6.73572644 -8.40625 5.3515625 C-7.4059375 4.61679687 -6.405625 3.88203125 -5.375 3.125 C-4.53710938 2.50882812 -3.69921875 1.89265625 -2.8359375 1.2578125 C-1 0 -1 0 0 0 Z " fill="#F7F7F6" transform="translate(673,309)"/>
<path d="M0 0 C2 1 2 1 3.17333984 3.96826172 C3.61013352 5.28624433 4.0387351 6.6069585 4.4609375 7.9296875 C4.6927774 8.63465363 4.92461731 9.33961975 5.16348267 10.06594849 C5.9077382 12.33338684 6.64173227 14.60398707 7.375 16.875 C8.33831849 19.8316566 9.30581546 22.78693709 10.2734375 25.7421875 C10.50625427 26.45695251 10.73907104 27.17171753 10.97894287 27.90814209 C12.64058764 32.98541442 14.42446236 38.00613953 16.32275391 43.00048828 C17 45 17 45 17 47 C6.11 47 -4.78 47 -16 47 C-14.14067076 40.18245946 -12.28896389 33.64269431 -9.86328125 27.05078125 C-9.57897751 26.26728806 -9.29467377 25.48379486 -9.00175476 24.67655945 C-8.10943277 22.22035865 -7.21109813 19.76641065 -6.3125 17.3125 C-5.69946686 15.62840183 -5.0868335 13.94415807 -4.47460938 12.25976562 C-2.98767465 8.17148482 -1.49535053 4.08520971 0 0 Z " fill="#F7F7F7" transform="translate(888,556)"/>
<path d="M0 0 C2.59226293 2.59226293 3.3358914 5.44254222 4.4609375 8.84375 C4.6927774 9.52747681 4.92461731 10.21120361 5.16348267 10.91564941 C5.90623744 13.10859495 6.64109942 15.30407701 7.375 17.5 C8.3375335 20.36581213 9.303913 23.23029568 10.2734375 26.09375 C10.50625427 26.78331787 10.73907104 27.47288574 10.97894287 28.18334961 C12.59474479 32.92713996 14.36618083 37.5817599 16.32275391 42.19726562 C17 44 17 44 17 46 C6.11 46 -4.78 46 -16 46 C-14.63523659 39.85856464 -13.20268238 34.34166839 -10.99609375 28.53515625 C-10.71274673 27.77577255 -10.42939972 27.01638885 -10.13746643 26.23399353 C-9.24303214 23.84137063 -8.34028944 21.45198095 -7.4375 19.0625 C-6.82825389 17.43444009 -6.21952544 15.80618637 -5.61132812 14.17773438 C-1.20134399 2.40268798 -1.20134399 2.40268798 0 0 Z " fill="#F7F7F6" transform="translate(773,557)"/>
<path d="M0 0 C2.35599213 1.55313883 3.99978287 2.94849526 6 5 C6.495 7.475 6.495 7.475 7 10 C-13.13 10 -33.26 10 -54 10 C-50.43684522 6.43684522 -48.92821046 6.25490744 -44 6 C-41.0625 6.9375 -41.0625 6.9375 -39 8 C-38.75507813 7.40316406 -38.51015625 6.80632812 -38.2578125 6.19140625 C-35.16941721 0.81069272 -27.85972973 -2.62680171 -22.08984375 -4.5234375 C-13.5421901 -6.47262207 -7.31598248 -4.59609915 0 0 Z " fill="#49AC2F" transform="translate(290,484)"/>
<path d="M0 0 C0 0.33 0 0.66 0 1 C-1.07483643 1.02505615 -2.14967285 1.0501123 -3.25708008 1.07592773 C-7.24353022 1.17007495 -11.22980909 1.27027785 -15.21606445 1.37231445 C-16.94160965 1.41563562 -18.66719693 1.45731273 -20.39282227 1.49731445 C-22.87268764 1.55508526 -25.35234172 1.61876003 -27.83203125 1.68359375 C-28.60400345 1.70030624 -29.37597565 1.71701874 -30.17134094 1.73423767 C-33.35182933 1.82227895 -35.96235584 1.98745195 -39 3 C-40.9887473 2.96843258 -42.97814946 2.93554193 -44.96484375 2.83984375 C-47.04982496 2.87154833 -47.04982496 2.87154833 -48.8828125 3.97265625 C-51.61409815 5.29798489 -53.91503051 5.34754252 -56.9375 5.5 C-61.10091625 5.71053938 -64.18371734 6.33746102 -68 8 C-69.30487184 8.36204537 -70.61751326 8.69767175 -71.9375 9 C-77.97376444 10.47502703 -82.12280897 12.04552079 -87 16 C-87.99 16 -88.98 16 -90 16 C-91.56406528 16.15127402 -93.12659252 16.31902522 -94.6875 16.5 C-95.49574219 16.5928125 -96.30398438 16.685625 -97.13671875 16.78125 C-97.75160156 16.8534375 -98.36648438 16.925625 -99 17 C-99.495 18.485 -99.495 18.485 -100 20 C-100.99 20 -101.98 20 -103 20 C-105.01755281 20.86490647 -105.01755281 20.86490647 -107.0625 22 C-110.79166667 24 -110.79166667 24 -113 24 C-113 24.66 -113 25.32 -113 26 C-114.051875 26.598125 -115.10375 27.19625 -116.1875 27.8125 C-125.4843394 32.93416493 -125.4843394 32.93416493 -133.5625 39.6875 C-136.15990426 42.15170404 -137.49484329 42.699558 -141 43 C-141.33 44.65 -141.66 46.3 -142 48 C-142.94875 48.0825 -143.8975 48.165 -144.875 48.25 C-148.10461791 48.65074923 -148.10461791 48.65074923 -149.375 51.0625 C-149.58125 51.701875 -149.7875 52.34125 -150 53 C-150.66 53 -151.32 53 -152 53 C-152.2475 53.61875 -152.495 54.2375 -152.75 54.875 C-154 57 -154 57 -156.0625 58 C-157.0215625 58.495 -157.0215625 58.495 -158 59 C-158.185625 59.8971875 -158.185625 59.8971875 -158.375 60.8125 C-159.3710993 64.29884756 -162.25400114 65.76887593 -165 68 C-165.495 69.485 -165.495 69.485 -166 71 C-167.1640625 72.5078125 -167.1640625 72.5078125 -168.625 74.125 C-171.06690629 76.90900911 -173.4422694 79.72826703 -175.75 82.625 C-176.32234375 83.33914063 -176.8946875 84.05328125 -177.484375 84.7890625 C-179.07627788 87.11127134 -180.05379831 89.35620115 -181 92 C-181.66 92 -182.32 92 -183 92 C-183.09410156 92.69609375 -183.18820312 93.3921875 -183.28515625 94.109375 C-184.14298641 97.57819642 -185.64392377 100.16251327 -187.4375 103.25 C-190.40535039 108.59818753 -191.95483696 113.0140662 -193 119 C-193.62782476 120.35205706 -194.2859652 121.69142194 -195 123 C-193.02 123.66 -191.04 124.32 -189 125 C-191 127 -191 127 -192.9453125 127.1953125 C-194.96354167 127.13020833 -196.98177083 127.06510417 -199 127 C-197.83719535 120.85156955 -196.15069808 115.31813037 -193.5625 109.625 C-193.21687012 108.85969971 -192.87124023 108.09439941 -192.51513672 107.3059082 C-183.97393527 88.85743776 -173.00085532 72.73888491 -159 58 C-158.5054834 57.47293457 -158.0109668 56.94586914 -157.50146484 56.40283203 C-118.58657167 15.15798759 -56.58638722 -8.21521301 0 0 Z " fill="#F69E13" transform="translate(533,200)"/>
<path d="M0 0 C0.99 0.99 1.98 1.98 3 3 C-54.09 3 -111.18 3 -170 3 C-170 2.67 -170 2.34 -170 2 C-127.43 1.67 -84.86 1.34 -41 1 C-41 0.01 -41 -0.98 -41 -2 C-40.01 -1.34 -39.02 -0.68 -38 0 C-34.71346701 -0.65727858 -34.71346701 -0.65727858 -31.0625 -1.875 C-20.11593252 -5.05388742 -10.41371229 -5.34082329 0 0 Z " fill="#1E9711" transform="translate(337,492)"/>
<path d="M0 0 C15.51 0 31.02 0 47 0 C47 3.3 47 6.6 47 10 C36.44 10 25.88 10 15 10 C15 17.59 15 25.18 15 33 C14.67 33 14.34 33 14 33 C14 25.08 14 17.16 14 9 C24.23 9 34.46 9 45 9 C45 6.69 45 4.38 45 2 C30.48 2 15.96 2 1 2 C1 26.42 1 50.84 1 76 C16.51 76 32.02 76 48 76 C48 73.69 48 71.38 48 69 C37.11 69 26.22 69 15 69 C15 68.67 15 68.34 15 68 C26.22 68 37.44 68 49 68 C49 70.97 49 73.94 49 77 C32.83 77 16.66 77 0 77 C0 51.59 0 26.18 0 0 Z " fill="#000000" transform="translate(399,694)"/>
<path d="M0 0 C1.61567611 1.33468896 3.22209473 2.68147978 4.7930088 4.06857491 C6.34236245 5.42447543 7.93270006 6.73427072 9.55042076 8.00782585 C14.86304273 12.58199785 17.62633034 15.89513219 18.20254517 23.01101685 C18.23145264 25.74709354 18.20743979 28.44823101 18.13525391 31.18017578 C18.13242805 32.68901887 18.13402651 34.19787567 18.13967896 35.70671082 C18.14253166 39.77539694 18.08402526 43.84109505 18.01393938 47.90909052 C17.95114028 52.17034634 17.94552993 56.43168169 17.9336853 60.69332886 C17.9026865 68.75078443 17.82074123 76.80687234 17.72019041 84.86372745 C17.58717972 95.75959717 17.53347086 106.65584475 17.47516823 117.55232239 C17.38132614 134.70257136 17.18206014 151.84993517 17 169 C-20.62 169 -58.24 169 -97 169 C-94.09907498 167.06604999 -93.10325263 166.69868059 -89.8125 166.375 C-88.554375 166.25125 -87.29625 166.1275 -86 166 C-86 166.33 -86 166.66 -86 167 C-52.34 167.33 -18.68 167.66 16 168 C16.25921388 141.52818168 16.25921388 141.52818168 16.37695312 115.05664062 C16.39363174 104.25222324 16.42548682 93.44944373 16.55883789 82.64575195 C16.65591274 74.77521385 16.69940988 66.90644777 16.68036038 59.03530365 C16.67210909 54.87218261 16.68946222 50.71294352 16.77114677 46.5505352 C17.88002643 26.59098976 17.88002643 26.59098976 9.51609135 9.39931583 C6.50618136 6.66040533 3.32852611 4.33861112 0 2 C0 1.34 0 0.68 0 0 Z " fill="#20040E" transform="translate(719,326)"/>
<path d="M0 0 C0.66 0 1.32 0 2 0 C4.97 9.24 7.94 18.48 11 28 C4.07 28 -2.86 28 -10 28 C-6.7 18.76 -3.4 9.52 0 0 Z " fill="#F9F9F9" transform="translate(264,712)"/>
<path d="M0 0 C3.96 0 7.92 0 12 0 C12 25.41 12 50.82 12 77 C7.38 77 2.76 77 -2 77 C-1.505 76.01 -1.505 76.01 -1 75 C2.63 75.33 6.26 75.66 10 76 C10 51.58 10 27.16 10 2 C7.03 2 4.06 2 1 2 C1 18.83 1 35.66 1 53 C0.67 53 0.34 53 0 53 C0 35.51 0 18.02 0 0 Z " fill="#100E08" transform="translate(524,694)"/>
<path d="M0 0 C0 0.33 0 0.66 0 1 C-1.07483643 1.02505615 -2.14967285 1.0501123 -3.25708008 1.07592773 C-7.24353022 1.17007495 -11.22980909 1.27027785 -15.21606445 1.37231445 C-16.94160965 1.41563562 -18.66719693 1.45731273 -20.39282227 1.49731445 C-22.87268764 1.55508526 -25.35234172 1.61876003 -27.83203125 1.68359375 C-28.60400345 1.70030624 -29.37597565 1.71701874 -30.17134094 1.73423767 C-33.35182933 1.82227895 -35.96235584 1.98745195 -39 3 C-40.9887473 2.96843258 -42.97814946 2.93554193 -44.96484375 2.83984375 C-47.04982496 2.87154833 -47.04982496 2.87154833 -48.8828125 3.97265625 C-51.61409815 5.29798489 -53.91503051 5.34754252 -56.9375 5.5 C-61.10091625 5.71053938 -64.18371734 6.33746102 -68 8 C-69.30487184 8.36204537 -70.61751326 8.69767175 -71.9375 9 C-77.97376444 10.47502703 -82.12280897 12.04552079 -87 16 C-87.99 16 -88.98 16 -90 16 C-92.33564933 16.31669821 -94.6693782 16.64820803 -97 17 C-97.33 16.34 -97.66 15.68 -98 15 C-67.37460145 2.19065071 -33.23199941 -4.82462245 0 0 Z " fill="#FAB012" transform="translate(533,200)"/>
<path d="M0 0 C3.96353613 2.53666312 5.14777285 4.91155112 6.3125 9.3125 C6.6528125 11.1378125 6.6528125 11.1378125 7 13 C7.45375 12.34 7.9075 11.68 8.375 11 C11.85901899 8.34550934 14.30931672 8.42349212 18.59765625 8.625 C22.16183498 9.18135961 23.6676962 10.25611318 26 13 C27.58532551 15.57107279 29.04267034 18.12801101 30 21 C29.67 21.66 29.34 22.32 29 23 C28.278125 22.236875 27.55625 21.47375 26.8125 20.6875 C22.77408908 16.82857401 20.13561348 14.83678777 14.5 14.6875 C10.9626609 14.79970274 8.18519552 15.35602812 5 17 C4.85304688 16.39671875 4.70609375 15.7934375 4.5546875 15.171875 C3.39386335 11.03560504 2.53872908 8.51307531 -0.625 5.5 C-4.1802428 3.91989209 -7.00658192 3.41187655 -10.8515625 3.17578125 C-12.99724385 3.0002255 -14.9295045 2.57617861 -17 2 C-11.38782688 -0.56880718 -6.08221654 -0.80029165 0 0 Z " fill="#1D1A16" transform="translate(696,256)"/>
<path d="M0 0 C4.61883137 0.46514733 6.50419713 2.08612235 9.625 5.4375 C12.04451291 8.00978079 14.04993243 10.03328829 17 12 C17 12.66 17 13.32 17 14 C15.39125 14.12375 15.39125 14.12375 13.75 14.25 C9.66499825 15.06700035 8.65108323 15.9561637 6 19 C5.34 19 4.68 19 4 19 C3.7525 17.7625 3.505 16.525 3.25 15.25 C2.2470317 11.42787757 1.52940834 9.117645 -2 7 C-7.38101874 6.36204417 -12.71047041 6.88641482 -18 8 C-18 7.01 -18 6.02 -18 5 C-16.41058594 4.90912109 -16.41058594 4.90912109 -14.7890625 4.81640625 C-13.40102779 4.73199873 -12.01300768 4.64735083 -10.625 4.5625 C-9.92632813 4.52318359 -9.22765625 4.48386719 -8.5078125 4.44335938 C-4.62639508 4.25719866 -4.62639508 4.25719866 -1 3 C-0.67 2.01 -0.34 1.02 0 0 Z " fill="#F8D40A" transform="translate(640,248)"/>
<path d="M0 0 C2.78395763 1.89243485 4.49105718 4.00007796 6 7 C6.375 10.4375 6.375 10.4375 6 13 C6.66 13 7.32 13 8 13 C8.33 12.01 8.66 11.02 9 10 C13.03946681 7.30702213 16.2567055 7.3391177 21 8 C25.67300606 10.59611448 27.73855515 14.30315301 30 19 C29.67 19.66 29.34 20.32 29 21 C27.700625 19.824375 27.700625 19.824375 26.375 18.625 C22.21186388 15.19309388 18.84699513 13.87262103 13.375 14.25 C10.50367745 14.88807168 8.55066602 15.64112989 6 17 C5.78085937 16.39671875 5.56171875 15.7934375 5.3359375 15.171875 C3.19177106 9.76787828 1.56554352 6.42860081 -4 4 C-7.66438484 3.41369843 -11.29317107 3.13191562 -15 3 C-11.04226292 -0.95773708 -5.27946297 -0.9985961 0 0 Z " fill="#1E1A2A" transform="translate(638,254)"/>
<path d="M0 0 C15.51 0 31.02 0 47 0 C47 3.3 47 6.6 47 10 C36.44 10 25.88 10 15 10 C15 17.59 15 25.18 15 33 C14.67 33 14.34 33 14 33 C14 25.08 14 17.16 14 9 C24.23 9 34.46 9 45 9 C45 6.69 45 4.38 45 2 C30.48 2 15.96 2 1 2 C0.67 1.34 0.34 0.68 0 0 Z " fill="#13110C" transform="translate(399,694)"/>
<path d="M0 0 C2 2 2 2 2.24050903 4.25259399 C2.23606781 5.18969208 2.23162659 6.12679016 2.22705078 7.09228516 C2.22682419 8.68370834 2.22682419 8.68370834 2.22659302 10.30728149 C2.21627045 11.45626923 2.20594788 12.60525696 2.1953125 13.7890625 C2.1924826 14.96262299 2.18965271 16.13618347 2.18673706 17.3453064 C2.17551355 21.10530662 2.15040492 24.86507139 2.125 28.625 C2.11497301 31.1692674 2.10584668 33.71353852 2.09765625 36.2578125 C2.0755671 42.50529949 2.04102236 48.75260979 2 55 C-1.96 55 -5.92 55 -10 55 C-9.67 53.68 -9.34 52.36 -9 51 C-9 51.66 -9 52.32 -9 53 C-6.03 53 -3.06 53 0 53 C0 35.51 0 18.02 0 0 Z " fill="#3E3D39" transform="translate(481,717)"/>
<path d="M0 0 C2.74841035 2.48243516 3.75279658 5.54620592 5 9 C5.66 8.34 6.32 7.68 7 7 C13.92487479 6.20534224 13.92487479 6.20534224 17.875 9.125 C20.04480835 12.06062306 21.09979814 14.4810291 22 18 C20.53515625 16.73046875 19.0703125 15.4609375 17.60546875 14.19140625 C13.98684455 11.50605252 10.3239281 11.845574 6 12 C5.01 12.33 4.02 12.66 3 13 C2.79246094 12.45730469 2.58492187 11.91460937 2.37109375 11.35546875 C0.59959658 7.24174101 -0.41275832 5.34799507 -4.375 3 C-7.79999705 2.05517323 -10.4734149 1.74195719 -14 2 C-13 0 -13 0 -11.22265625 -0.63671875 C-7.39558695 -1.26223271 -3.75827227 -0.92170556 0 0 Z " fill="#1D1B17" transform="translate(671,227)"/>
<path d="M0 0 C0 0.33 0 0.66 0 1 C33.99 1.33 67.98 1.66 103 2 C103 2.33 103 2.66 103 3 C65.38 3 27.76 3 -11 3 C-7.11595442 0.41063628 -4.5725325 -0.12358196 0 0 Z " fill="#010000" transform="translate(633,492)"/>
<path d="M0 0 C0.99 0.495 0.99 0.495 2 1 C2 4.63 2 8.26 2 12 C3.588125 11.154375 5.17625 10.30875 6.8125 9.4375 C9.51953125 7.99609375 9.51953125 7.99609375 12 7 C12.99 7.33 13.98 7.66 15 8 C13.04414675 9.00484204 11.08523763 10.00373805 9.125 11 C8.03445313 11.556875 6.94390625 12.11375 5.8203125 12.6875 C3 14 3 14 1 14 C1 15.98 1 17.96 1 20 C1.97582031 19.48308594 2.95164062 18.96617187 3.95703125 18.43359375 C5.24191582 17.76770467 6.52708715 17.10236872 7.8125 16.4375 C8.45509766 16.09525391 9.09769531 15.75300781 9.75976562 15.40039062 C11.46926395 14.5234977 13.23321294 13.75484383 15 13 C15.99 13.33 16.98 13.66 18 14 C15.71070947 15.17154293 13.41881638 16.33738074 11.125 17.5 C10.47402344 17.83386719 9.82304688 18.16773438 9.15234375 18.51171875 C4.2265625 21 4.2265625 21 2 21 C2.33 24.63 2.66 28.26 3 32 C4.98 31.34 6.96 30.68 9 30 C9 30.66 9 31.32 9 32 C7.88625 32.433125 6.7725 32.86625 5.625 33.3125 C1.82487666 34.69911119 1.82487666 34.69911119 0 38 C0 25.46 0 12.92 0 0 Z " fill="#201918" transform="translate(541,457)"/>
<path d="M0 0 C8.91 0 17.82 0 27 0 C26.67 3.3 26.34 6.6 26 10 C25.67 10 25.34 10 25 10 C25 7.03 25 4.06 25 1 C23.68 1.33 22.36 1.66 21 2 C19.48604304 2.07818636 17.96906493 2.10789909 16.453125 2.09765625 C15.60878906 2.09443359 14.76445312 2.09121094 13.89453125 2.08789062 C13.02183594 2.07951172 12.14914062 2.07113281 11.25 2.0625 C10.36183594 2.05798828 9.47367187 2.05347656 8.55859375 2.04882812 C6.37232671 2.037074 4.18619821 2.02064249 2 2 C2.01160156 3.05960937 2.02320313 4.11921875 2.03515625 5.2109375 C2.04453476 6.59895658 2.05363489 7.98697755 2.0625 9.375 C2.07087891 10.07367188 2.07925781 10.77234375 2.08789062 11.4921875 C2.11328125 16.7734375 2.11328125 16.7734375 1 19 C-0.65 19 -2.3 19 -4 19 C-2.68 18.67 -1.36 18.34 0 18 C0 12.06 0 6.12 0 0 Z " fill="#242020" transform="translate(353,308)"/>
<path d="M0 0 C8.81849315 -0.61643836 8.81849315 -0.61643836 12.875 1.5 C15.57092755 4.67167947 17.67714797 8.0314439 19 12 C18.67 12.66 18.34 13.32 18 14 C16.88625 12.8553125 16.88625 12.8553125 15.75 11.6875 C13.176446 9.04428801 13.176446 9.04428801 10.6875 7.3125 C10.130625 6.879375 9.57375 6.44625 9 6 C9 5.34 9 4.68 9 4 C5.37 4 1.74 4 -2 4 C-1.34 2.68 -0.68 1.36 0 0 Z " fill="#27231D" transform="translate(707,265)"/>
<path d="M0 0 C1.43655854 -0.08131463 2.8744483 -0.13933559 4.3125 -0.1875 C5.51326172 -0.23970703 5.51326172 -0.23970703 6.73828125 -0.29296875 C9.52147497 0.06754857 10.28885881 0.82977214 12 3 C13.1875 5.1875 13.1875 5.1875 14 7 C14.33 6.67 14.66 6.34 15 6 C21.20549582 5.41457587 21.20549582 5.41457587 24.375 7.75 C25.94785432 9.92779828 26.62376963 11.36638744 27 14 C26.195625 13.34 25.39125 12.68 24.5625 12 C21.67310162 10.00967807 19.84184509 9.86140517 16.375 10.125 C14.02734375 10.24609375 14.02734375 10.24609375 12 10 C9.9375 7.1875 9.9375 7.1875 8 4 C5.37403856 2.60798549 2.86762402 1.86028721 0 1 C0 0.67 0 0.34 0 0 Z " fill="#1E1D1A" transform="translate(694,229)"/>
<path d="M0 0 C0.33 0 0.66 0 1 0 C1.495 7.92 1.495 7.92 2 16 C-5.59 16 -13.18 16 -21 16 C-20.67 13.69 -20.34 11.38 -20 9 C-19.67 9 -19.34 9 -19 9 C-19 10.65 -19 12.3 -19 14 C-16.37251369 13.94014838 -13.75083005 13.85323776 -11.125 13.75 C-10.37863281 13.73582031 -9.63226562 13.72164063 -8.86328125 13.70703125 C-6.42861619 13.64013659 -6.42861619 13.64013659 -3 13 C-0.81859689 10.4008814 -0.66804622 7.57119052 -0.375 4.25 C-0.30023437 3.45078125 -0.22546875 2.6515625 -0.1484375 1.828125 C-0.09945312 1.22484375 -0.05046875 0.6215625 0 0 Z " fill="#F8A614" transform="translate(539,479)"/>
<path d="M0 0 C0.33 0 0.66 0 1 0 C1.16764279 4.10412741 1.3339474 8.20830797 1.5 12.3125 C1.54769531 13.47974609 1.59539063 14.64699219 1.64453125 15.84960938 C1.68964844 16.96787109 1.73476563 18.08613281 1.78125 19.23828125 C1.82314453 20.26993408 1.86503906 21.30158691 1.90820312 22.36450195 C1.97360204 24.24211189 2 26.12125145 2 28 C18.335 28.495 18.335 28.495 35 29 C35 29.33 35 29.66 35 30 C23.45 30 11.9 30 0 30 C0 20.1 0 10.2 0 0 Z " fill="#3AAB40" transform="translate(737,464)"/>
<path d="M0 0 C0.33 0 0.66 0 1 0 C1 8.91 1 17.82 1 27 C-1.64 27 -4.28 27 -7 27 C-6.67 26.34 -6.34 25.68 -6 25 C-4.35 25 -2.7 25 -1 25 C-1.00523682 24.34926514 -1.01047363 23.69853027 -1.01586914 23.02807617 C-1.03664938 20.08122726 -1.0496635 17.13439377 -1.0625 14.1875 C-1.07087891 13.16333984 -1.07925781 12.13917969 -1.08789062 11.08398438 C-1.09111328 10.10107422 -1.09433594 9.11816406 -1.09765625 8.10546875 C-1.10289307 7.19949951 -1.10812988 6.29353027 -1.11352539 5.36010742 C-1 3 -1 3 0 0 Z " fill="#038C42" transform="translate(231,441)"/>
<path d="M0 0 C3.37264642 2.82867119 3.95794096 6.83176385 5 11 C4.01 11 3.02 11 2 11 C1.649375 10.071875 1.29875 9.14375 0.9375 8.1875 C-1.54020405 4.11127721 -3.49016498 3.37588187 -8 2 C-11.29285101 1.74730583 -11.29285101 1.74730583 -14 2 C-13 0 -13 0 -11.22265625 -0.63671875 C-7.39035818 -1.26308733 -3.76530648 -0.90911392 0 0 Z " fill="#2D2A27" transform="translate(671,227)"/>
<path d="M0 0 C0.66 0.33 1.32 0.66 2 1 C-4.12210136 6.63642317 -10.34521503 12.00087409 -17 17 C-17.66 16.67 -18.32 16.34 -19 16 C-17.625 14.5 -17.625 14.5 -16 13 C-15.34 13 -14.68 13 -14 13 C-14 12.01 -14 11.02 -14 10 C-12.9275 9.4225 -11.855 8.845 -10.75 8.25 C-7.68294021 6.5062281 -5.41712624 4.58977812 -3 2 C-2.01 1.34 -1.02 0.68 0 0 Z " fill="#F3E606" transform="translate(641,304)"/>
<path d="M0 0 C4.95 0.99 4.95 0.99 10 2 C10 2.33 10 2.66 10 3 C-2.87 3 -15.74 3 -29 3 C-29 2.67 -29 2.34 -29 2 C-19.43 2 -9.86 2 0 2 C0 1.34 0 0.68 0 0 Z " fill="#4AAC38" transform="translate(329,491)"/>
<path d="M0 0 C0.99 0.495 0.99 0.495 2 1 C2 4.63 2 8.26 2 12 C3.588125 11.154375 5.17625 10.30875 6.8125 9.4375 C9.51953125 7.99609375 9.51953125 7.99609375 12 7 C12.99 7.33 13.98 7.66 15 8 C10.05 10.31 5.1 12.62 0 15 C0 10.05 0 5.1 0 0 Z " fill="#151218" transform="translate(541,457)"/>
<path d="M0 0 C5.61 0 11.22 0 17 0 C17.33 1.65 17.66 3.3 18 5 C17.34 4.34 16.68 3.68 16 3 C13.63490639 2.69940057 11.25558119 2.50484988 8.875 2.375 C6.95300781 2.26285156 6.95300781 2.26285156 4.9921875 2.1484375 C3.51105469 2.07496094 3.51105469 2.07496094 2 2 C2.33 3.65 2.66 5.3 3 7 C1 5 1 5 0 0 Z " fill="#17140F" transform="translate(308,694)"/>
<path d="M0 0 C4.29 0 8.58 0 13 0 C12.40138258 2.35171131 11.73075648 4.6859378 11 7 C10.01 7.495 10.01 7.495 9 8 C9.33 6.35 9.66 4.7 10 3 C7.03 3 4.06 3 1 3 C0.34 4.65 -0.32 6.3 -1 8 C-1.625 6.25 -1.625 6.25 -2 4 C-1.34 2.68 -0.68 1.36 0 0 Z " fill="#171410" transform="translate(368,694)"/>
<path d="M0 0 C0.33 0 0.66 0 1 0 C1 4.95 1 9.9 1 15 C2.32 14.67 3.64 14.34 5 14 C7.08674954 14.08379435 9.17149066 14.23416756 11.25 14.4375 C12.86648438 14.59025391 12.86648438 14.59025391 14.515625 14.74609375 C15.33546875 14.82988281 16.1553125 14.91367187 17 15 C17 15.33 17 15.66 17 16 C11.39 16.66 5.78 17.32 0 18 C0 12.06 0 6.12 0 0 Z " fill="#058F46" transform="translate(738,416)"/>
<path d="M0 0 C1.9375 2 1.9375 2 3 4 C2.34 4.66 1.68 5.32 1 6 C0.505 5.690625 0.01 5.38125 -0.5 5.0625 C-3.97986781 3.58355618 -7.24028509 3.37597149 -11 3 C-11 2.34 -11 1.68 -11 1 C-7.29567073 -0.18538537 -3.8654622 -0.35140565 0 0 Z " fill="#333023" transform="translate(661,263)"/>
<path d="M0 0 C1.485 0.99 1.485 0.99 3 2 C3.22107787 4.7885289 3.28107535 7.34653181 3.1875 10.125 C3.17396484 10.87910156 3.16042969 11.63320313 3.14648438 12.41015625 C3.11109985 14.27374127 3.05729167 16.13695978 3 18 C2.67 18 2.34 18 2 18 C1.67 16.02 1.34 14.04 1 12 C0.67 12 0.34 12 0 12 C0 8.04 0 4.08 0 0 Z " fill="#F7BB0E" transform="translate(538,439)"/>
<path d="M0 0 C0.66 0.66 1.32 1.32 2 2 C-3.94 2.495 -3.94 2.495 -10 3 C-10.33 3.99 -10.66 4.98 -11 6 C-12.65 6.33 -14.3 6.66 -16 7 C-11.5242596 0.7008098 -7.67836019 -0.57949888 0 0 Z " fill="#189227" transform="translate(825,410)"/>
<path d="M0 0 C3.82352106 1.5577308 6.29205593 3.91595258 9 7 C9 7.99 9 8.98 9 10 C7.35 10.66 5.7 11.32 4 12 C4.33 11.01 4.66 10.02 5 9 C4.34 8.01 3.68 7.02 3 6 C3.33 5.34 3.66 4.68 4 4 C3.34 4 2.68 4 2 4 C1.34 2.68 0.68 1.36 0 0 Z " fill="#F5DA09" transform="translate(663,272)"/>
<path d="M0 0 C0.33 0 0.66 0 1 0 C1.16764279 4.10412741 1.3339474 8.20830797 1.5 12.3125 C1.54769531 13.47974609 1.59539063 14.64699219 1.64453125 15.84960938 C1.68964844 16.96787109 1.73476563 18.08613281 1.78125 19.23828125 C1.82314453 20.26993408 1.86503906 21.30158691 1.90820312 22.36450195 C1.97360204 24.24211189 2 26.12125145 2 28 C1.34 28.66 0.68 29.32 0 30 C0 20.1 0 10.2 0 0 Z " fill="#2AC33B" transform="translate(737,464)"/>
<path d="M0 0 C0.66 0.66 1.32 1.32 2 2 C1 3 1 3 -1.14453125 3.0625 C-2.91536888 3.02101625 -4.68620227 2.9793512 -6.45703125 2.9375 C-8.81751485 2.99551496 -10.74711466 3.32781044 -13 4 C-12.67 3.01 -12.34 2.02 -12 1 C-7.94392005 0.01670789 -4.16937798 -0.23600253 0 0 Z " fill="#269C36" transform="translate(797,392)"/>
<path d="M0 0 C0.53625 0.37125 1.0725 0.7425 1.625 1.125 C4.9578904 2.35290699 6.72811589 1.20191661 10 0 C12.875 -0.125 12.875 -0.125 15 0 C15.33 0.99 15.66 1.98 16 3 C11.38 3.33 6.76 3.66 2 4 C1.34 2.68 0.68 1.36 0 0 Z " fill="#26A02C" transform="translate(295,490)"/>
<path d="M0 0 C-1.65 0.33 -3.3 0.66 -5 1 C-5 1.66 -5 2.32 -5 3 C-5.66 3 -6.32 3 -7 3 C-7.33 3.99 -7.66 4.98 -8 6 C-11.0625 7.6875 -11.0625 7.6875 -14 9 C-11.83249022 3.14772361 -6.25484031 -1.87645209 0 0 Z " fill="#0E8D1D" transform="translate(752,367)"/>
<path d="M0 0 C0.66 0 1.32 0 2 0 C2.33 1.32 2.66 2.64 3 4 C3.66 3.67 4.32 3.34 5 3 C6.87862875 3.08744368 8.75455181 3.24175542 10.625 3.4375 C11.62789062 3.53933594 12.63078125 3.64117187 13.6640625 3.74609375 C14.43492187 3.82988281 15.20578125 3.91367187 16 4 C15.67 4.66 15.34 5.32 15 6 C14.40832031 5.97679687 13.81664062 5.95359375 13.20703125 5.9296875 C8.66198041 5.82588536 5.14059941 5.86291643 1 8 C0.67 5.36 0.34 2.72 0 0 Z " fill="#0D0C09" transform="translate(700,265)"/>
<path d="M0 0 C7.71385771 1.01463896 7.71385771 1.01463896 10.87890625 4.1796875 C9.70328125 4.14875 9.70328125 4.14875 8.50390625 4.1171875 C5.89775664 3.99284687 5.89775664 3.99284687 3.87890625 5.1796875 C3.87890625 4.1896875 3.87890625 3.1996875 3.87890625 2.1796875 C-0.57609375 2.6746875 -0.57609375 2.6746875 -5.12109375 3.1796875 C-2.12109375 0.1796875 -2.12109375 0.1796875 0 0 Z " fill="#ECDB07" transform="translate(652.12109375,266.8203125)"/>
<path d="M0 0 C0.33 0 0.66 0 1 0 C1.08126087 2.08268593 1.13930839 4.16628658 1.1875 6.25 C1.23970703 7.99023438 1.23970703 7.99023438 1.29296875 9.765625 C0.97982934 13.22268407 0.34290892 14.51565563 -2 17 C-2.05418326 14.91695462 -2.09287551 12.83350232 -2.125 10.75 C-2.14820312 9.58984375 -2.17140625 8.4296875 -2.1953125 7.234375 C-2.0103949 4.17213954 -1.60823023 2.55797249 0 0 Z " fill="#34302A" transform="translate(100,562)"/>
<path d="M0 0 C3.42717768 1.38530129 4.7293493 2.67477227 6.3125 6 C6.65925781 6.70125 7.00601563 7.4025 7.36328125 8.125 C7.67845703 9.053125 7.67845703 9.053125 8 10 C7.67 10.66 7.34 11.32 7 12 C4.35247996 9.42215154 2.05567935 7.08351902 0 4 C0.66 3.67 1.32 3.34 2 3 C1.34 2.01 0.68 1.02 0 0 Z " fill="#1D1B18" transform="translate(718,267)"/>
<path d="M0 0 C0 0.99 0 1.98 0 3 C0.99 3.33 1.98 3.66 3 4 C2.67 4.66 2.34 5.32 2 6 C0.96875 5.505 -0.0625 5.01 -1.125 4.5 C-4.52451578 3.02526098 -7.27021549 2.72708894 -11 3 C-10 1 -10 1 -8.3125 0.375 C-5.51555886 -0.07855802 -2.82858003 -0.06428591 0 0 Z " fill="#1F1D18" transform="translate(668,226)"/>
<path d="M0 0 C0.928125 0.33 1.85625 0.66 2.8125 1 C5.92029291 2.14967004 5.92029291 2.14967004 9 2 C10.75 4.375 10.75 4.375 12 7 C11.67 7.66 11.34 8.32 11 9 C10.13375 8.21625 9.2675 7.4325 8.375 6.625 C5.44943553 4.16613272 2.72463238 2.97549896 -1 2 C-0.67 1.34 -0.34 0.68 0 0 Z " fill="#1E1A1D" transform="translate(656,266)"/>
<path d="M0 0 C2.07358419 3.11037628 2.29487123 3.99561252 2.3125 7.5625 C2.32925781 8.34753906 2.34601563 9.13257813 2.36328125 9.94140625 C2.24339844 10.62074219 2.12351562 11.30007813 2 12 C1.01 12.66 0.02 13.32 -1 14 C-1.027193 12.41676312 -1.04648306 10.83338938 -1.0625 9.25 C-1.07410156 8.36828125 -1.08570312 7.4865625 -1.09765625 6.578125 C-1.00826198 4.2181162 -0.66912821 2.25501476 0 0 Z " fill="#37352D" transform="translate(96,620)"/>
<path d="M0 0 C2 2 2 2 2.1953125 5.0390625 C2.17210937 6.22242188 2.14890625 7.40578125 2.125 8.625 C2.10695312 9.81351563 2.08890625 11.00203125 2.0703125 12.2265625 C2.04710937 13.14179687 2.02390625 14.05703125 2 15 C1.67 15 1.34 15 1 15 C0.67 13.35 0.34 11.7 0 10 C-0.33 10 -0.66 10 -1 10 C-1.125 2.25 -1.125 2.25 0 0 Z " fill="#39352E" transform="translate(193,570)"/>
<path d="M0 0 C3.3 0 6.6 0 10 0 C10.33 0.99 10.66 1.98 11 3 C7.04 2.67 3.08 2.34 -1 2 C-0.67 1.34 -0.34 0.68 0 0 Z " fill="#F8B218" transform="translate(370,305)"/>
<path d="M0 0 C0.33 0.66 0.66 1.32 1 2 C-2.3 2 -5.6 2 -9 2 C-9.33 2.99 -9.66 3.98 -10 5 C-10.99 4.67 -11.98 4.34 -13 4 C-9.41420832 -0.98892755 -5.61771415 -0.43213186 0 0 Z " fill="#1E1B21" transform="translate(659,262)"/>
<path d="M0 0 C2 1.8125 2 1.8125 4 4 C4 4.99 4 5.98 4 7 C0.37 7 -3.26 7 -7 7 C-7 6.67 -7 6.34 -7 6 C-4.36 5.34 -1.72 4.68 1 4 C0.67 2.68 0.34 1.36 0 0 Z " fill="#131128" transform="translate(525,401)"/>
<path d="M0 0 C0.33 0 0.66 0 1 0 C1 3.96 1 7.92 1 12 C0.01 12.495 0.01 12.495 -1 13 C-2.5121867 9.97562661 -2.17263369 7.33758466 -2 4 C-1 1.5625 -1 1.5625 0 0 Z " fill="#39362F" transform="translate(83,599)"/>
<path d="M0 0 C-0.66 1.32 -1.32 2.64 -2 4 C-3.65 4 -5.3 4 -7 4 C-7 3.34 -7 2.68 -7 2 C-7.66 1.67 -8.32 1.34 -9 1 C-5.846632 0.29925156 -3.27275026 0 0 0 Z " fill="#FBB71E" transform="translate(486,201)"/>
<path d="M0 0 C2.6843999 2.32317459 2.97569899 2.72782863 3.3125 6.5 C3 10 3 10 1 13 C-0.00496852 9.98509443 -0.10335303 7.95818308 -0.0625 4.8125 C-0.05347656 3.91144531 -0.04445312 3.01039063 -0.03515625 2.08203125 C-0.02355469 1.39496094 -0.01195312 0.70789063 0 0 Z " fill="#39342C" transform="translate(211,538)"/>
<path d="M0 0 C0.66 0 1.32 0 2 0 C2.28875 0.598125 2.5775 1.19625 2.875 1.8125 C4.04742026 4.19327792 4.04742026 4.19327792 6 7 C5.67 7.99 5.34 8.98 5 10 C4.34 10 3.68 10 3 10 C2.01 6.7 1.02 3.4 0 0 Z " fill="#259E3D" transform="translate(776,382)"/>
<path d="M0 0 C2 2 2 2 2.1953125 4.3828125 C2.17210937 5.28773438 2.14890625 6.19265625 2.125 7.125 C2.10695312 8.03507813 2.08890625 8.94515625 2.0703125 9.8828125 C2.03550781 10.93082031 2.03550781 10.93082031 2 12 C0.515625 10.72265625 0.515625 10.72265625 -1 9 C-1.43076923 2.86153846 -1.43076923 2.86153846 0 0 Z " fill="#343028" transform="translate(196,628)"/>
<path d="M0 0 C2.71566987 2.34307137 2.9773321 2.74158599 3.3125 6.5625 C3 10 3 10 1 12 C0.03929566 9.11788698 -0.10581883 7.30149956 -0.0625 4.3125 C-0.05347656 3.50425781 -0.04445312 2.69601562 -0.03515625 1.86328125 C-0.02355469 1.24839844 -0.01195312 0.63351562 0 0 Z " fill="#38352E" transform="translate(214,584)"/>
<path d="M0 0 C2.6875 0.3125 2.6875 0.3125 5 1 C3.35 2.65 1.7 4.3 0 6 C-0.99 5.01 -1.98 4.02 -3 3 C-1.8125 1.4375 -1.8125 1.4375 0 0 Z " fill="#1E9C40" transform="translate(211,432)"/>
<path d="M0 0 C0.33 0 0.66 0 1 0 C1.33 4.62 1.66 9.24 2 14 C0.68 14 -0.64 14 -2 14 C-1.7834375 13.0409375 -1.7834375 13.0409375 -1.5625 12.0625 C-0.82763202 8.06155212 -0.41418889 4.04495104 0 0 Z " fill="#F8B118" transform="translate(351,312)"/>
<path d="M0 0 C-0.33 0.99 -0.66 1.98 -1 3 C-4.3 3 -7.6 3 -11 3 C-7.11595442 0.41063628 -4.5725325 -0.12358196 0 0 Z " fill="#110F0B" transform="translate(633,492)"/>
<path d="M0 0 C0.66 0.66 1.32 1.32 2 2 C3.31747324 2.69748583 4.64914193 3.36959957 6 4 C5.67 4.66 5.34 5.32 5 6 C2.4375 6.625 2.4375 6.625 0 7 C0 4.69 0 2.38 0 0 Z " fill="#EFAC1A" transform="translate(381,311)"/>
<path d="M0 0 C0 0.66 0 1.32 0 2 C-3.3 2.66 -6.6 3.32 -10 4 C-10 3.01 -10 2.02 -10 1 C-2.25 0 -2.25 0 0 0 Z " fill="#F5E406" transform="translate(632,252)"/>
<path d="M0 0 C1.5 1.125 1.5 1.125 3 3 C3.3125 6.0625 3.3125 6.0625 3 9 C2.34 9.66 1.68 10.32 1 11 C-0.28317892 7.15046324 -0.06643637 4.05261865 0 0 Z " fill="#35312A" transform="translate(215,600)"/>
<path d="M0 0 C0 3 0 3 -1.53125 4.60546875 C-2.1809375 5.12753906 -2.830625 5.64960938 -3.5 6.1875 C-4.1496875 6.71730469 -4.799375 7.24710937 -5.46875 7.79296875 C-5.9740625 8.19128906 -6.479375 8.58960938 -7 9 C-5.64978174 4.58110387 -3.73884332 2.65654657 0 0 Z " fill="#52B12A" transform="translate(216,472)"/>
<path d="M0 0 C2.875 -0.125 2.875 -0.125 6 0 C6.66 0.66 7.32 1.32 8 2 C7 3 7 3 5.15234375 3.09765625 C3.1015625 3.06510417 1.05078125 3.03255208 -1 3 C-0.67 2.01 -0.34 1.02 0 0 Z " fill="#39362F" transform="translate(315,328)"/>
<path d="M0 0 C6.52307692 0.61538462 6.52307692 0.61538462 8.9375 2.5625 C9.288125 3.036875 9.63875 3.51125 10 4 C6.38970831 4 3.44193324 3.03907418 0 2 C0 1.34 0 0.68 0 0 Z " fill="#DFCD0D" transform="translate(632,252)"/>
<path d="M0 0 C2.97 0 5.94 0 9 0 C9 1.32 9 2.64 9 4 C6.03 3.01 3.06 2.02 0 1 C0 0.67 0 0.34 0 0 Z " fill="#100F0D" transform="translate(694,229)"/>
<path d="M0 0 C-2 2 -2 2 -5.625 2.125 C-6.73875 2.08375 -7.8525 2.0425 -9 2 C-9 1.34 -9 0.68 -9 0 C-3.375 -1.125 -3.375 -1.125 0 0 Z " fill="#F0AF1A" transform="translate(344,325)"/>
<path d="M0 0 C2.46800047 1.15173355 4.04783565 2.04783565 6 4 C6.125 6.625 6.125 6.625 6 9 C5.01 8.01 4.02 7.02 3 6 C3.33 5.34 3.66 4.68 4 4 C3.34 4 2.68 4 2 4 C1.34 2.68 0.68 1.36 0 0 Z " fill="#FAE10F" transform="translate(663,272)"/>
<path d="M0 0 C2.475 0.495 2.475 0.495 5 1 C5.66 2.98 6.32 4.96 7 7 C5.83040013 6.02433888 4.66438823 5.044375 3.5 4.0625 C2.8503125 3.51722656 2.200625 2.97195312 1.53125 2.41015625 C1.0259375 1.94480469 0.520625 1.47945312 0 1 C0 0.67 0 0.34 0 0 Z " fill="#1A1715" transform="translate(686,238)"/>
<path d="M0 0 C0.33 0 0.66 0 1 0 C1.33 3.3 1.66 6.6 2 10 C1.01 10 0.02 10 -1 10 C-0.67 6.7 -0.34 3.4 0 0 Z " fill="#36332D" transform="translate(263,601)"/>
<path d="M0 0 C0.33 0.66 0.66 1.32 1 2 C-0.32 3.65 -1.64 5.3 -3 7 C-3.66 6.34 -4.32 5.68 -5 5 C-4.67 4.01 -4.34 3.02 -4 2 C-3.01 2.33 -2.02 2.66 -1 3 C-0.67 2.01 -0.34 1.02 0 0 Z " fill="#078E4C" transform="translate(209,477)"/>
</svg>
